<?xml version="1.0" encoding="UTF-8"?>
<!-- Generator: visioncortex VTracer 0.6.3 -->
<svg version="1.1" xmlns="http://www.w3.org/2000/svg" width="1280" height="1280">
<path d="M0 0 C2.98 0.02 5.95 0.02 8.93 0.01 C10.84 0.02 12.76 0.03 14.67 0.04 C15.55 0.03 16.43 0.03 17.34 0.03 C22.39 0.09 26.61 0.74 31.45 2.34 C34.06 2.84 36.65 3.32 39.27 3.77 C48.03 5.36 56.1 7.56 64.2 11.32 C66.45 12.33 68.71 13.21 71.02 14.09 C86.53 20.26 102.62 28.6 115.45 39.34 C115.45 40 115.45 40.66 115.45 41.34 C116.54 41.71 116.54 41.71 117.64 42.09 C120.73 43.46 122.96 45.06 125.45 47.34 C125.45 48 125.45 48.66 125.45 49.34 C126.32 49.74 126.32 49.74 127.2 50.15 C129.51 51.37 131.47 52.64 133.45 54.34 C133.45 55 133.45 55.66 133.45 56.34 C134.44 56.67 135.43 57 136.45 57.34 C136.45 58 136.45 58.66 136.45 59.34 C137.11 59.34 137.77 59.34 138.45 59.34 C138.45 60 138.45 60.66 138.45 61.34 C139.44 61.67 140.43 62 141.45 62.34 C141.45 63 141.45 63.66 141.45 64.34 C142.11 64.34 142.77 64.34 143.45 64.34 C148.45 69.81 148.45 69.81 148.45 72.34 C149.44 72.67 150.43 73 151.45 73.34 C151.45 74 151.45 74.66 151.45 75.34 C152.11 75.34 152.77 75.34 153.45 75.34 C154.69 76.75 154.69 76.75 156.06 78.74 C156.82 79.82 156.82 79.82 157.59 80.92 C158.12 81.7 158.66 82.47 159.2 83.27 C159.75 84.06 160.29 84.84 160.85 85.65 C161.92 87.2 162.99 88.74 164.05 90.29 C165.15 91.89 166.25 93.47 167.37 95.05 C170.71 99.86 173.33 104.89 175.88 110.16 C177.52 113.48 179.29 116.72 181.08 119.96 C183.98 125.3 186.33 130.65 188.45 136.34 C189.1 137.94 189.74 139.55 190.39 141.15 C190.72 141.97 191.05 142.8 191.38 143.65 C192.15 145.57 192.93 147.49 193.71 149.4 C196.38 156.05 198.36 162.53 199.78 169.56 C200.4 172.11 201.28 174.01 202.45 176.34 C202.83 178.44 202.83 178.44 203.02 180.52 C203.03 184.12 203.03 184.12 204.45 185.34 C204.82 187.14 205.15 188.96 205.45 190.77 C206.06 194.68 206.06 194.68 207.45 198.34 C207.64 199.98 207.78 201.63 207.89 203.27 C208.21 207.14 208.68 210.9 209.39 214.71 C209.65 216.09 209.65 216.09 209.92 217.5 C210.27 219.37 210.63 221.24 210.99 223.11 C212.46 231.43 212.84 239.68 213.11 248.11 C213.25 252.3 213.41 256.43 213.97 260.59 C214.45 264.27 214.59 267.81 214.58 271.52 C214.58 272.69 214.58 273.86 214.59 275.07 C214.47 277.95 214.12 280.53 213.45 283.34 C214.32 283.65 214.32 283.65 215.2 283.96 C221.05 287.53 223.41 295.12 225.45 301.34 C225.96 303.7 226.24 305.92 226.45 308.34 C227.11 308.34 227.77 308.34 228.45 308.34 C228.57 308.94 228.69 309.54 228.81 310.16 C229.33 312.86 229.86 315.57 230.39 318.27 C230.57 319.22 230.76 320.16 230.94 321.14 C231.21 322.49 231.21 322.49 231.48 323.86 C231.64 324.7 231.81 325.53 231.97 326.39 C232.27 328.33 232.27 328.33 233.45 329.34 C233.55 331.08 233.58 332.83 233.58 334.57 C233.59 336.25 233.59 336.25 233.59 337.96 C233.59 339.18 233.59 340.4 233.59 341.65 C233.59 342.89 233.59 344.13 233.59 345.4 C233.59 348.03 233.59 350.66 233.58 353.28 C233.58 356.66 233.58 360.03 233.59 363.4 C233.59 366.61 233.59 369.82 233.59 373.02 C233.59 374.24 233.59 375.46 233.59 376.71 C233.59 377.83 233.59 378.95 233.58 380.1 C233.58 381.58 233.58 381.58 233.58 383.1 C233.45 385.34 233.45 385.34 232.45 386.34 C232.08 388.66 231.76 391 231.45 393.34 C230.57 400.23 230.57 400.23 229.45 401.34 C229.25 402.66 229.09 404 228.95 405.34 C228.57 409.23 228.57 409.23 227.45 410.34 C227.13 411.85 226.84 413.37 226.58 414.9 C225.82 418.83 224.8 422.36 223.31 426.07 C222.21 428.97 221.34 431.93 220.45 434.9 C219.05 439.54 217.5 443.94 215.45 448.34 C214.79 448.34 214.13 448.34 213.45 448.34 C213.45 449.99 213.45 451.64 213.45 453.34 C212.79 453.34 212.13 453.34 211.45 453.34 C211.12 455.98 210.79 458.62 210.45 461.34 C209.79 461.34 209.13 461.34 208.45 461.34 C208.39 462.12 208.33 462.9 208.27 463.71 C206.74 470.52 203.69 476.66 198.45 481.34 C198.12 482.33 197.79 483.32 197.45 484.34 C196.79 484.34 196.13 484.34 195.45 484.34 C195.12 486.32 194.79 488.3 194.45 490.34 C193.13 490.67 191.81 491 190.45 491.34 C190.58 492.45 190.58 492.45 190.7 493.59 C190.38 497.19 189.04 497.9 186.45 500.34 C185.68 501.91 185.68 501.91 184.89 503.52 C183.45 506.34 183.45 506.34 180.45 507.34 C180.12 508.99 179.79 510.64 179.45 512.34 C179.12 511.68 178.79 511.02 178.45 510.34 C177.46 510.34 176.47 510.34 175.45 510.34 C176.11 511.66 176.77 512.98 177.45 514.34 C176.73 515.01 176.73 515.01 175.99 515.69 C171.15 520.29 171.15 520.29 168.45 526.34 C167.79 526.34 167.13 526.34 166.45 526.34 C166.19 526.93 165.92 527.52 165.65 528.13 C164.43 530.38 163.17 531.89 161.38 533.71 C160.76 534.35 160.14 534.99 159.5 535.64 C158.83 536.32 158.16 536.99 157.47 537.69 C156.78 538.39 156.08 539.1 155.37 539.82 C153.9 541.3 152.43 542.78 150.96 544.25 C148.71 546.51 146.49 548.79 144.26 551.07 C142.83 552.51 141.4 553.94 139.97 555.38 C139.31 556.06 138.64 556.74 137.96 557.45 C134.19 561.18 131.93 562.93 126.45 563.34 C125.02 565.29 125.02 565.29 124.45 567.34 C121.45 567.34 121.45 567.34 119.45 566.34 C119.45 567.33 119.45 568.32 119.45 569.34 C120.11 569.67 120.77 570 121.45 570.34 C118.39 572.96 117.72 573.34 113.45 573.34 C113.32 574.25 113.32 574.25 113.19 575.18 C112.25 577.95 111.22 578.43 108.7 579.84 C106.25 581.26 104.16 582.58 101.95 584.4 C99.76 586.1 97.88 587.16 95.39 588.34 C92.09 589.9 90 591.7 87.45 594.34 C86.13 594.69 84.79 595.02 83.45 595.34 C82.04 596.26 80.62 597.19 79.24 598.15 C77.13 599.55 74.97 600.83 72.77 602.09 C72.02 602.51 71.27 602.94 70.5 603.38 C68.45 604.34 68.45 604.34 65.45 604.34 C65.45 605 65.45 605.66 65.45 606.34 C58.83 609.34 58.83 609.34 55.45 609.34 C55.45 610 55.45 610.66 55.45 611.34 C52.81 611.67 50.17 612 47.45 612.34 C47.45 613 47.45 613.66 47.45 614.34 C42.45 616.34 42.45 616.34 40.14 617.21 C37.82 618.18 35.68 619.28 33.45 620.46 C30.31 622.07 28.05 622.79 24.45 622.34 C24.45 623 24.45 623.66 24.45 624.34 C23.24 624.6 22.02 624.87 20.77 625.15 C17.19 626.03 14.6 627.4 11.45 629.34 C9.12 630.08 6.83 630.73 4.45 631.34 C3.55 631.6 2.64 631.86 1.7 632.13 C0.25 632.54 0.25 632.54 -1.23 632.96 C-2.14 633.22 -3.06 633.48 -4 633.75 C-6.55 634.34 -6.55 634.34 -10.55 634.34 C-9.47 634.93 -8.4 635.53 -7.3 636.15 C-4.56 637.72 -1.92 639.25 0.45 641.34 C0.45 642 0.45 642.66 0.45 643.34 C1.19 643.61 1.93 643.88 2.69 644.15 C5.34 645.29 7.32 646.52 9.61 648.24 C10.76 649.1 10.76 649.1 11.94 649.98 C13.15 650.9 13.15 650.9 14.39 651.84 C16.08 653.1 17.78 654.37 19.47 655.63 C20.31 656.26 21.14 656.88 22.01 657.53 C24.26 659.19 26.52 660.81 28.81 662.41 C29.46 662.87 30.12 663.33 30.79 663.8 C32 664.64 33.22 665.48 34.44 666.31 C35.81 667.27 37.14 668.3 38.45 669.34 C38.45 670 38.45 670.66 38.45 671.34 C39.11 671.34 39.77 671.34 40.45 671.34 C42.42 676.08 42.81 679.35 41.45 684.34 C38.95 687.21 38.95 687.21 36.45 689.34 C36.12 689.67 35.79 690 35.45 690.34 C29.76 691.3 25.47 690.82 20.67 687.52 C19.08 686.29 17.51 685.05 15.95 683.77 C14.3 682.49 12.65 681.2 11 679.91 C10.22 679.29 9.44 678.67 8.63 678.03 C5.2 675.36 1.6 672.97 -2.03 670.57 C-2.53 670.16 -3.03 669.76 -3.55 669.34 C-3.55 668.68 -3.55 668.02 -3.55 667.34 C-4.54 667.34 -5.53 667.34 -6.55 667.34 C-6.55 666.68 -6.55 666.02 -6.55 665.34 C-7.21 665.13 -7.87 664.92 -8.55 664.71 C-12.03 663.11 -14.77 661.03 -17.78 658.68 C-19.51 657.28 -19.51 657.28 -21.55 656.34 C-21.55 655.68 -21.55 655.02 -21.55 654.34 C-22.21 654.13 -22.87 653.92 -23.55 653.71 C-27.62 651.84 -31.23 649.36 -34.55 646.34 C-34.55 645.68 -34.55 645.02 -34.55 644.34 C-40.45 643.47 -44.92 642.96 -50.55 645.34 C-56.89 647.4 -63.34 648.37 -69.92 649.4 C-72.1 649.74 -74.27 650.08 -76.44 650.43 C-77.4 650.58 -78.36 650.73 -79.34 650.89 C-81.51 651.12 -81.51 651.12 -82.55 652.34 C-83.95 652.48 -85.36 652.56 -86.76 652.62 C-87.61 652.65 -88.46 652.69 -89.34 652.73 C-92.05 652.84 -92.05 652.84 -94.75 652.94 C-95.6 652.98 -96.45 653.02 -97.33 653.05 C-98.11 653.09 -98.9 653.12 -99.7 653.15 C-101.56 653.14 -101.56 653.14 -102.55 654.34 C-112.36 655.86 -122.49 655.66 -132.4 655.89 C-134.55 655.94 -136.69 656 -138.83 656.05 C-140.1 656.09 -141.37 656.12 -142.67 656.15 C-145.44 656.01 -145.44 656.01 -146.55 657.34 C-148.98 657.44 -151.39 657.48 -153.83 657.47 C-154.56 657.47 -155.28 657.47 -156.04 657.47 C-157.58 657.47 -159.12 657.47 -160.67 657.47 C-163.04 657.46 -165.41 657.47 -167.78 657.47 C-169.27 657.47 -170.77 657.47 -172.26 657.47 C-172.98 657.47 -173.69 657.47 -174.43 657.48 C-179.43 657.45 -179.43 657.45 -180.55 656.34 C-182.39 656.19 -184.24 656.11 -186.08 656.05 C-187.79 656 -187.79 656 -189.53 655.94 C-191.33 655.89 -191.33 655.89 -193.17 655.84 C-212.62 655.26 -212.62 655.26 -214.55 653.34 C-216.39 653.1 -218.25 652.92 -220.11 652.77 C-221.12 652.69 -222.13 652.61 -223.17 652.52 C-223.96 652.46 -224.74 652.4 -225.55 652.34 C-225.55 651.68 -225.55 651.02 -225.55 650.34 C-227.4 650.4 -227.4 650.4 -229.3 650.46 C-232.7 650.47 -234.53 649.94 -237.55 648.34 C-239.56 648.08 -241.57 647.83 -243.59 647.61 C-246.13 647.25 -248.23 646.4 -250.55 645.34 C-254.21 643.74 -257.58 642.89 -261.55 642.34 C-261.55 641.68 -261.55 641.02 -261.55 640.34 C-262.66 640.25 -263.77 640.17 -264.92 640.09 C-269.4 639.54 -273.22 638.04 -277.35 636.27 C-279.65 635.26 -279.65 635.26 -282.55 634.34 C-282.55 633.68 -282.55 633.02 -282.55 632.34 C-283.64 632.16 -283.64 632.16 -284.76 631.98 C-291.1 630.51 -296.68 626.53 -301.55 622.34 C-302.47 621.63 -303.4 620.93 -304.36 620.21 C-305.44 619.28 -305.44 619.28 -306.55 618.34 C-306.55 617.68 -306.55 617.02 -306.55 616.34 C-307.21 616.34 -307.87 616.34 -308.55 616.34 C-314.63 610.1 -317.27 603.02 -317.55 594.34 C-316.17 591.15 -316.17 591.15 -314.55 588.34 C-314.36 587.41 -314.17 586.48 -313.98 585.52 C-313.84 584.8 -313.69 584.08 -313.55 583.34 C-312.89 583.01 -312.23 582.68 -311.55 582.34 C-311.07 581.82 -310.6 581.3 -310.11 580.77 C-308.55 579.34 -308.55 579.34 -305.55 579.34 C-305.22 578.35 -304.89 577.36 -304.55 576.34 C-306.11 575.25 -306.11 575.25 -307.7 574.13 C-317.27 567.43 -326.7 560.59 -335.99 553.51 C-337.3 552.52 -338.65 551.57 -340 550.62 C-340.76 549.99 -340.76 549.99 -341.55 549.34 C-341.55 548.68 -341.55 548.02 -341.55 547.34 C-342.16 547.03 -342.78 546.72 -343.42 546.4 C-344.8 545.71 -346.17 545.02 -347.55 544.34 C-347.55 543.68 -347.55 543.02 -347.55 542.34 C-348.14 542.09 -348.74 541.84 -349.36 541.59 C-352.06 540.04 -353.11 539.13 -354.55 536.34 C-355.08 533.23 -355.15 530.44 -354.55 527.34 C-352.11 524.24 -349.81 522.51 -346.55 520.34 C-341.88 519.81 -338.93 519.7 -335.03 522.42 C-333.91 523.31 -332.82 524.22 -331.73 525.15 C-331.17 525.6 -330.62 526.05 -330.04 526.52 C-324.53 531.01 -324.53 531.01 -322.55 533.34 C-322.55 534 -322.55 534.66 -322.55 535.34 C-321.56 535.34 -320.57 535.34 -319.55 535.34 C-319.55 536 -319.55 536.66 -319.55 537.34 C-318.23 537.67 -316.91 538 -315.55 538.34 C-315.55 539 -315.55 539.66 -315.55 540.34 C-314.97 540.61 -314.4 540.88 -313.81 541.16 C-311.53 542.34 -309.49 543.67 -307.39 545.13 C-306.6 545.67 -305.81 546.22 -305 546.78 C-304.17 547.35 -303.34 547.93 -302.48 548.52 C-292.03 555.71 -281.75 562.43 -270.32 567.95 C-267.55 569.34 -267.55 569.34 -266.55 570.34 C-261.69 570.82 -258.05 569.62 -253.6 567.89 C-251.55 567.34 -251.55 567.34 -248.55 568.34 C-248.55 567.68 -248.55 567.02 -248.55 566.34 C-246.97 566.15 -246.97 566.15 -245.36 565.96 C-241.68 565.51 -241.68 565.51 -238.98 564.27 C-236.05 563.15 -233.66 563.19 -230.55 563.34 C-230.55 562.68 -230.55 562.02 -230.55 561.34 C-228.24 560.68 -225.93 560.02 -223.55 559.34 C-223.55 559.01 -223.55 558.68 -223.55 558.34 C-221.76 557.83 -219.96 557.33 -218.17 556.84 C-216.67 556.42 -216.67 556.42 -215.15 555.99 C-212.55 555.34 -212.55 555.34 -210.55 555.34 C-210.55 554.68 -210.55 554.02 -210.55 553.34 C-208.9 553.34 -207.25 553.34 -205.55 553.34 C-205.55 552.68 -205.55 552.02 -205.55 551.34 C-204.84 551.07 -204.14 550.8 -203.42 550.52 C-199.44 548.88 -195.66 547.02 -191.98 544.77 C-189.55 543.34 -189.55 543.34 -186.92 542.34 C-184.5 541.5 -184.5 541.5 -182.98 539.71 C-181.55 538.34 -181.55 538.34 -177.55 538.34 C-177.55 537.68 -177.55 537.02 -177.55 536.34 C-175.9 536.01 -174.25 535.68 -172.55 535.34 C-172.55 534.68 -172.55 534.02 -172.55 533.34 C-169.59 530.59 -168.77 530.34 -164.55 530.34 C-164.55 529.68 -164.55 529.02 -164.55 528.34 C-163.05 526.9 -163.05 526.9 -161.11 525.34 C-158.39 523.19 -158.39 523.19 -156.55 520.34 C-155.85 520.11 -155.16 519.89 -154.45 519.66 C-150.16 517.71 -147.37 514.55 -144.09 511.21 C-143.04 510.16 -143.04 510.16 -141.97 509.08 C-140.49 507.6 -139.02 506.11 -137.55 504.62 C-135.3 502.34 -133.03 500.06 -130.76 497.79 C-129.33 496.35 -127.9 494.9 -126.47 493.46 C-125.79 492.78 -125.11 492.09 -124.41 491.39 C-123.79 490.76 -123.16 490.12 -122.52 489.47 C-121.97 488.91 -121.42 488.35 -120.85 487.78 C-119.44 486.35 -119.44 486.35 -118.55 484.34 C-117.89 484.34 -117.23 484.34 -116.55 484.34 C-116.48 483.61 -116.42 482.89 -116.36 482.15 C-115.29 478.45 -113.44 476.8 -110.55 474.34 C-109.89 474.34 -109.23 474.34 -108.55 474.34 C-108.5 473.63 -108.46 472.93 -108.42 472.21 C-107.35 468.7 -105.75 467.4 -103.11 464.96 C-100.63 462.39 -99.19 459.49 -97.55 456.34 C-96.89 456.34 -96.23 456.34 -95.55 456.34 C-95.55 455.68 -95.55 455.02 -95.55 454.34 C-94.89 454.34 -94.23 454.34 -93.55 454.34 C-93.44 453.57 -93.34 452.81 -93.23 452.02 C-92.46 449.02 -91.72 448.42 -89.55 446.34 C-89.07 445.39 -88.6 444.44 -88.11 443.46 C-86.55 440.35 -84.73 438.02 -82.55 435.34 C-82.22 434.66 -81.89 433.97 -81.55 433.27 C-80.28 430.82 -78.49 429.28 -76.55 427.34 C-75.86 426.01 -75.19 424.68 -74.55 423.34 C-73.73 421.91 -72.9 420.49 -72.05 419.09 C-71.62 418.38 -71.2 417.67 -70.76 416.95 C-70.36 416.41 -69.96 415.88 -69.55 415.34 C-68.89 415.34 -68.23 415.34 -67.55 415.34 C-67.42 414.57 -67.3 413.81 -67.17 413.02 C-66.55 410.34 -66.55 410.34 -64.55 407.34 C-64.24 406.7 -63.93 406.06 -63.61 405.4 C-61.97 402.22 -59.79 399.62 -57.48 396.9 C-55.61 394.42 -54.55 392.26 -53.55 389.34 C-52.89 389.34 -52.23 389.34 -51.55 389.34 C-51.26 388.43 -50.97 387.52 -50.67 386.59 C-49.78 384.01 -48.83 381.72 -47.55 379.34 C-46.56 379.34 -45.57 379.34 -44.55 379.34 C-44.88 378.35 -45.21 377.36 -45.55 376.34 C-44.27 374.62 -42.93 372.96 -41.55 371.34 C-41.22 370.66 -40.89 369.97 -40.55 369.27 C-39.28 366.82 -37.49 365.28 -35.55 363.34 C-34.86 362.01 -34.2 360.68 -33.55 359.34 C-33.07 358.88 -32.6 358.43 -32.11 357.96 C-30.31 356.26 -30.31 356.26 -29.05 353.21 C-27.55 350.34 -27.55 350.34 -24.55 349.34 C-24.4 348.76 -24.26 348.18 -24.11 347.59 C-23.14 343.71 -20.32 341.11 -17.55 338.34 C-16.85 337.02 -16.18 335.69 -15.55 334.34 C-15.22 334.67 -14.89 335 -14.55 335.34 C-14.3 334.59 -14.05 333.85 -13.8 333.09 C-12.44 330.11 -11.04 328.44 -8.55 326.34 C-7.89 326.34 -7.23 326.34 -6.55 326.34 C-6.46 325.76 -6.38 325.18 -6.3 324.59 C-5.32 321.65 -3.8 320.47 -1.55 318.34 C-0.3 316.86 -0.3 316.86 0.96 315.35 C5.26 310.3 9.96 305.65 14.64 300.96 C15.54 300.05 16.44 299.13 17.37 298.19 C18.67 296.89 18.67 296.89 20 295.56 C20.78 294.77 21.57 293.99 22.37 293.17 C24.45 291.34 24.45 291.34 27.45 290.34 C27.45 289.35 27.45 288.36 27.45 287.34 C29.1 287.34 30.75 287.34 32.45 287.34 C32.7 286.72 32.95 286.1 33.2 285.46 C34.68 282.96 35.86 282.51 38.45 281.34 C38.78 280.68 39.11 280.02 39.45 279.34 C41.1 278.3 42.77 277.3 44.45 276.34 C45.44 275.68 46.43 275.02 47.45 274.34 C48.44 274.34 49.43 274.34 50.45 274.34 C50.45 273.68 50.45 273.02 50.45 272.34 C52.28 270.83 52.28 270.83 54.7 269.21 C55.49 268.67 56.28 268.13 57.09 267.58 C59.45 266.34 59.45 266.34 63.45 266.34 C63.45 265.68 63.45 265.02 63.45 264.34 C66.77 262.91 69.9 261.95 73.45 261.34 C73.45 260.68 73.45 260.02 73.45 259.34 C74.91 258.87 74.91 258.87 76.39 258.4 C79.29 257.64 79.29 257.64 80.45 256.34 C82.45 256.3 84.45 256.29 86.45 256.34 C86.45 255.68 86.45 255.02 86.45 254.34 C89.09 253.68 91.73 253.02 94.45 252.34 C94.45 252.01 94.45 251.68 94.45 251.34 C96.76 251.34 99.07 251.34 101.45 251.34 C101.45 250.68 101.45 250.02 101.45 249.34 C103.18 248.97 104.91 248.62 106.64 248.27 C107.6 248.08 108.57 247.88 109.56 247.68 C112.49 247.33 114.62 247.59 117.45 248.34 C117.45 247.68 117.45 247.02 117.45 246.34 C142.8 244.3 165.54 245.46 188.45 257.34 C189.25 254.05 189.55 252.63 188.45 249.34 C188.33 247.89 188.25 246.44 188.21 244.98 C188.18 244.13 188.14 243.28 188.11 242.4 C188.05 240.63 187.99 238.86 187.94 237.09 C187.73 232 187.12 227.33 185.92 222.39 C185.28 219.55 185.07 216.74 184.89 213.84 C184.96 210.27 184.96 210.27 183.45 207.34 C183.1 205.36 182.8 203.38 182.52 201.4 C181.25 191.47 181.25 191.47 178.48 181.91 C177.38 179.16 176.73 176.48 176.08 173.59 C174.94 168.87 173.43 164.67 171.37 160.29 C169.08 155.4 168.09 150.68 167.45 145.34 C166.79 145.34 166.13 145.34 165.45 145.34 C165.16 144.41 165.16 144.41 164.86 143.46 C158.31 124.07 145.6 100.95 130.78 86.73 C129.45 85.34 129.45 85.34 129.45 83.34 C128.79 83.34 128.13 83.34 127.45 83.34 C126.02 81.84 126.02 81.84 124.45 79.9 C122.31 77.18 122.31 77.18 119.45 75.34 C119.45 74.68 119.45 74.02 119.45 73.34 C118.46 73.01 117.47 72.68 116.45 72.34 C116.45 71.68 116.45 71.02 116.45 70.34 C115.79 70.34 115.13 70.34 114.45 70.34 C114.45 69.68 114.45 69.02 114.45 68.34 C113.46 68.01 112.47 67.68 111.45 67.34 C111.45 66.68 111.45 66.02 111.45 65.34 C110.86 65.06 110.27 64.78 109.66 64.49 C107.62 63.42 105.96 62.29 104.16 60.87 C87.83 48.16 70.74 38.69 51.33 31.41 C49.49 30.73 47.66 30.01 45.85 29.26 C38.23 26.33 29.73 25.79 21.68 24.8 C18.45 24.34 18.45 24.34 15.45 23.34 C13.7 23.24 11.95 23.21 10.2 23.2 C8.67 23.2 8.67 23.2 7.11 23.2 C6.05 23.2 4.99 23.21 3.89 23.21 C2.82 23.21 1.76 23.2 0.66 23.2 C-0.87 23.2 -0.87 23.2 -2.42 23.2 C-3.36 23.2 -4.29 23.21 -5.26 23.21 C-7.58 23.19 -7.58 23.19 -9.55 24.34 C-11.71 24.68 -13.88 24.99 -16.05 25.27 C-24.81 26.5 -32.79 27.79 -40.97 31.27 C-43.69 32.4 -46.45 33.37 -49.23 34.34 C-52.54 35.51 -55.53 36.78 -58.55 38.59 C-61.55 40.34 -61.55 40.34 -64.55 40.34 C-64.55 41 -64.55 41.66 -64.55 42.34 C-68.48 44.65 -72.24 46.77 -76.55 48.34 C-76.55 49 -76.55 49.66 -76.55 50.34 C-77.54 50.34 -78.53 50.34 -79.55 50.34 C-79.55 51 -79.55 51.66 -79.55 52.34 C-81.24 53.9 -83 55.39 -84.8 56.84 C-85.77 57.63 -86.74 58.42 -87.75 59.24 C-90.55 61.34 -90.55 61.34 -92.78 62.37 C-95.1 63.64 -95.49 64.94 -96.55 67.34 C-97.51 68.78 -98.51 70.19 -99.55 71.59 C-100.06 72.29 -100.58 73 -101.11 73.73 C-101.58 74.26 -102.06 74.79 -102.55 75.34 C-103.21 75.34 -103.87 75.34 -104.55 75.34 C-104.92 76.11 -104.92 76.11 -105.3 76.9 C-106.94 80.11 -108.74 83.21 -110.55 86.34 C-111.21 86.34 -111.87 86.34 -112.55 86.34 C-112.65 86.89 -112.76 87.45 -112.87 88.02 C-113.67 90.77 -114.92 92.92 -116.36 95.4 C-118.98 100.1 -120.94 104.76 -122.68 109.85 C-123.55 112.34 -123.55 112.34 -125.11 115.84 C-135.11 140.19 -135.22 173.83 -126.25 198.43 C-125.09 203.22 -126.12 207.13 -128.55 211.34 C-129.21 211.34 -129.87 211.34 -130.55 211.34 C-130.88 212.33 -131.21 213.32 -131.55 214.34 C-138.65 214.53 -144.72 214.48 -151.55 212.34 C-154.2 212.02 -156.85 211.82 -159.51 211.61 C-166.26 211 -173.07 210.09 -179.61 208.27 C-183.83 207.13 -188.05 206.93 -192.39 206.61 C-199.84 205.96 -207.12 204.48 -214.39 202.77 C-216.69 202.31 -218.95 202.09 -221.3 201.9 C-225.03 201.53 -227.53 200.69 -230.55 198.34 C-232.11 195.22 -231.91 192.76 -231.55 189.34 C-229.55 187.65 -229.55 187.65 -226.55 186.34 C-225.32 185.69 -224.09 185.05 -222.86 184.4 C-218.98 182.48 -215.01 180.91 -210.98 179.34 C-208.77 178.43 -206.67 177.43 -204.55 176.34 C-201.7 174.87 -198.84 173.62 -195.86 172.46 C-191.85 170.9 -187.95 169.16 -184.05 167.34 C-179.36 165.15 -174.65 163.15 -169.83 161.28 C-167.52 160.33 -165.33 159.24 -163.11 158.09 C-159.55 156.34 -159.55 156.34 -156.55 156.34 C-156.49 155.23 -156.42 154.11 -156.36 152.97 C-156.11 148.42 -155.83 143.88 -155.55 139.34 C-155.49 138.37 -155.42 137.4 -155.36 136.4 C-154.83 129.85 -153.31 123.66 -151.55 117.34 C-151.26 116.29 -150.97 115.25 -150.67 114.18 C-145.88 97.76 -138.49 81.34 -128.55 67.34 C-127.89 67.34 -127.23 67.34 -126.55 67.34 C-126.55 66.35 -126.55 65.36 -126.55 64.34 C-125.89 64.34 -125.23 64.34 -124.55 64.34 C-124.14 63.47 -124.14 63.47 -123.73 62.59 C-122.53 60.3 -121.17 58.34 -119.61 56.27 C-119.1 55.6 -118.6 54.93 -118.08 54.24 C-116.65 52.46 -115.26 50.84 -113.55 49.34 C-112.89 49.34 -112.23 49.34 -111.55 49.34 C-111.22 48.35 -110.89 47.36 -110.55 46.34 C-109.89 46.34 -109.23 46.34 -108.55 46.34 C-108.55 45.68 -108.55 45.02 -108.55 44.34 C-107.89 44.34 -107.23 44.34 -106.55 44.34 C-106.22 43.35 -105.89 42.36 -105.55 41.34 C-104.89 41.34 -104.23 41.34 -103.55 41.34 C-103.55 40.68 -103.55 40.02 -103.55 39.34 C-101.87 37.83 -101.87 37.83 -99.67 36.21 C-98.95 35.67 -98.23 35.13 -97.49 34.58 C-95.55 33.34 -95.55 33.34 -93.55 33.34 C-93.55 32.68 -93.55 32.02 -93.55 31.34 C-87.43 25.99 -80.55 22.11 -73.25 18.64 C-71.07 17.59 -69.04 16.48 -66.98 15.21 C-63.19 13.14 -59.39 11.76 -55.32 10.35 C-52.74 9.41 -50.33 8.33 -47.86 7.15 C-43.72 5.24 -40.06 4.74 -35.55 4.34 C-35.22 4.01 -34.89 3.68 -34.55 3.34 C-23.12 0.06 -11.8 -0.1 0 0 Z M211.45 278.34 C212.45 280.34 212.45 280.34 212.45 280.34 Z M217.45 433.34 C217.12 434.33 216.79 435.32 216.45 436.34 C217.44 436.01 218.43 435.68 219.45 435.34 C219.45 434.68 219.45 434.02 219.45 433.34 C218.79 433.34 218.13 433.34 217.45 433.34 Z M198.45 474.34 C198.45 475.33 198.45 476.32 198.45 477.34 C199.44 477.01 200.43 476.68 201.45 476.34 C201.45 475.68 201.45 475.02 201.45 474.34 C200.46 474.34 199.47 474.34 198.45 474.34 Z M190.45 487.34 C190.45 488.33 190.45 489.32 190.45 490.34 C191.44 490.01 192.43 489.68 193.45 489.34 C193.45 488.68 193.45 488.02 193.45 487.34 C192.46 487.34 191.47 487.34 190.45 487.34 Z M180.45 502.34 C180.45 503.33 180.45 504.32 180.45 505.34 C181.44 505.01 182.43 504.68 183.45 504.34 C183.45 503.68 183.45 503.02 183.45 502.34 C182.46 502.34 181.47 502.34 180.45 502.34 Z M174.45 512.34 C175.45 514.34 175.45 514.34 175.45 514.34 Z M130.45 558.34 C130.12 559.33 129.79 560.32 129.45 561.34 C130.44 561.01 131.43 560.68 132.45 560.34 C132.45 559.68 132.45 559.02 132.45 558.34 C131.79 558.34 131.13 558.34 130.45 558.34 Z M86.45 589.34 C86.12 590.33 85.79 591.32 85.45 592.34 C86.44 592.01 87.43 591.68 88.45 591.34 C88.45 590.68 88.45 590.02 88.45 589.34 C87.79 589.34 87.13 589.34 86.45 589.34 Z M74.45 596.34 C74.12 597.33 73.79 598.32 73.45 599.34 C74.44 599.01 75.43 598.68 76.45 598.34 C76.45 597.68 76.45 597.02 76.45 596.34 C75.79 596.34 75.13 596.34 74.45 596.34 Z " fill="#3DE1FA" transform="translate(786.5458984375,262.663818359375)"/>
<path d="M0 0 C2.98 0.02 5.95 0.02 8.93 0.01 C10.84 0.02 12.76 0.03 14.67 0.04 C15.55 0.03 16.43 0.03 17.34 0.03 C22.39 0.09 26.61 0.74 31.45 2.34 C34.06 2.84 36.65 3.32 39.27 3.77 C48.03 5.36 56.1 7.56 64.2 11.32 C66.45 12.33 68.71 13.21 71.02 14.09 C86.53 20.26 102.62 28.6 115.45 39.34 C115.45 40 115.45 40.66 115.45 41.34 C116.54 41.71 116.54 41.71 117.64 42.09 C120.73 43.46 122.96 45.06 125.45 47.34 C125.45 48 125.45 48.66 125.45 49.34 C126.32 49.74 126.32 49.74 127.2 50.15 C129.51 51.37 131.47 52.64 133.45 54.34 C133.45 55 133.45 55.66 133.45 56.34 C134.44 56.67 135.43 57 136.45 57.34 C136.45 58 136.45 58.66 136.45 59.34 C137.11 59.34 137.77 59.34 138.45 59.34 C138.45 60 138.45 60.66 138.45 61.34 C139.44 61.67 140.43 62 141.45 62.34 C141.45 63 141.45 63.66 141.45 64.34 C142.11 64.34 142.77 64.34 143.45 64.34 C148.45 69.81 148.45 69.81 148.45 72.34 C149.44 72.67 150.43 73 151.45 73.34 C151.45 74 151.45 74.66 151.45 75.34 C152.11 75.34 152.77 75.34 153.45 75.34 C154.69 76.75 154.69 76.75 156.06 78.74 C156.82 79.82 156.82 79.82 157.59 80.92 C158.12 81.7 158.66 82.47 159.2 83.27 C159.75 84.06 160.29 84.84 160.85 85.65 C161.92 87.2 162.99 88.74 164.05 90.29 C165.15 91.89 166.25 93.47 167.37 95.05 C170.71 99.86 173.33 104.89 175.88 110.16 C177.52 113.48 179.29 116.72 181.08 119.96 C183.98 125.3 186.33 130.65 188.45 136.34 C189.1 137.94 189.74 139.55 190.39 141.15 C190.72 141.97 191.05 142.8 191.38 143.65 C192.15 145.57 192.93 147.49 193.71 149.4 C196.38 156.05 198.36 162.53 199.78 169.56 C200.4 172.11 201.28 174.01 202.45 176.34 C202.83 178.44 202.83 178.44 203.02 180.52 C203.03 184.12 203.03 184.12 204.45 185.34 C204.82 187.14 205.15 188.96 205.45 190.77 C206.06 194.68 206.06 194.68 207.45 198.34 C207.64 199.98 207.78 201.63 207.89 203.27 C208.21 207.14 208.68 210.9 209.39 214.71 C209.65 216.09 209.65 216.09 209.92 217.5 C210.27 219.37 210.63 221.24 210.99 223.11 C212.46 231.43 212.84 239.68 213.11 248.11 C213.25 252.3 213.41 256.43 213.97 260.59 C214.45 264.27 214.59 267.81 214.58 271.52 C214.58 272.69 214.58 273.86 214.59 275.07 C214.47 277.95 214.12 280.53 213.45 283.34 C214.32 283.65 214.32 283.65 215.2 283.96 C221.05 287.53 223.41 295.12 225.45 301.34 C225.96 303.7 226.24 305.92 226.45 308.34 C227.11 308.34 227.77 308.34 228.45 308.34 C228.57 308.94 228.69 309.54 228.81 310.16 C229.33 312.86 229.86 315.57 230.39 318.27 C230.57 319.22 230.76 320.16 230.94 321.14 C231.21 322.49 231.21 322.49 231.48 323.86 C231.64 324.7 231.81 325.53 231.97 326.39 C232.27 328.33 232.27 328.33 233.45 329.34 C233.55 331.08 233.58 332.83 233.58 334.57 C233.59 336.25 233.59 336.25 233.59 337.96 C233.59 339.18 233.59 340.4 233.59 341.65 C233.59 342.89 233.59 344.13 233.59 345.4 C233.59 348.03 233.59 350.66 233.58 353.28 C233.58 356.66 233.58 360.03 233.59 363.4 C233.59 366.61 233.59 369.82 233.59 373.02 C233.59 374.24 233.59 375.46 233.59 376.71 C233.59 377.83 233.59 378.95 233.58 380.1 C233.58 381.58 233.58 381.58 233.58 383.1 C233.45 385.34 233.45 385.34 232.45 386.34 C232.08 388.66 231.76 391 231.45 393.34 C230.57 400.23 230.57 400.23 229.45 401.34 C229.25 402.66 229.09 404 228.95 405.34 C228.57 409.23 228.57 409.23 227.45 410.34 C227.13 411.85 226.84 413.37 226.58 414.9 C225.82 418.83 224.8 422.36 223.31 426.07 C222.21 428.97 221.34 431.93 220.45 434.9 C219.05 439.54 217.5 443.94 215.45 448.34 C214.79 448.34 214.13 448.34 213.45 448.34 C213.45 449.99 213.45 451.64 213.45 453.34 C212.79 453.34 212.13 453.34 211.45 453.34 C211.12 455.98 210.79 458.62 210.45 461.34 C209.79 461.34 209.13 461.34 208.45 461.34 C208.39 462.12 208.33 462.9 208.27 463.71 C206.74 470.52 203.69 476.66 198.45 481.34 C198.12 482.33 197.79 483.32 197.45 484.34 C196.79 484.34 196.13 484.34 195.45 484.34 C195.12 486.32 194.79 488.3 194.45 490.34 C193.13 490.67 191.81 491 190.45 491.34 C190.58 492.45 190.58 492.45 190.7 493.59 C190.38 497.19 189.04 497.9 186.45 500.34 C185.68 501.91 185.68 501.91 184.89 503.52 C183.45 506.34 183.45 506.34 180.45 507.34 C180.12 508.99 179.79 510.64 179.45 512.34 C179.12 511.68 178.79 511.02 178.45 510.34 C177.46 510.34 176.47 510.34 175.45 510.34 C176.11 511.66 176.77 512.98 177.45 514.34 C176.73 515.01 176.73 515.01 175.99 515.69 C171.15 520.29 171.15 520.29 168.45 526.34 C167.79 526.34 167.13 526.34 166.45 526.34 C166.19 526.93 165.92 527.52 165.65 528.13 C164.43 530.38 163.17 531.89 161.38 533.71 C160.76 534.35 160.14 534.99 159.5 535.64 C158.83 536.32 158.16 536.99 157.47 537.69 C156.78 538.39 156.08 539.1 155.37 539.82 C153.9 541.3 152.43 542.78 150.96 544.25 C148.71 546.51 146.49 548.79 144.26 551.07 C142.83 552.51 141.4 553.94 139.97 555.38 C139.31 556.06 138.64 556.74 137.96 557.45 C134.19 561.18 131.93 562.93 126.45 563.34 C125.02 565.29 125.02 565.29 124.45 567.34 C121.45 567.34 121.45 567.34 119.45 566.34 C119.45 567.33 119.45 568.32 119.45 569.34 C120.11 569.67 120.77 570 121.45 570.34 C118.39 572.96 117.72 573.34 113.45 573.34 C113.32 574.25 113.32 574.25 113.19 575.18 C112.25 577.95 111.22 578.43 108.7 579.84 C106.25 581.26 104.16 582.58 101.95 584.4 C99.76 586.1 97.88 587.16 95.39 588.34 C92.09 589.9 90 591.7 87.45 594.34 C86.13 594.69 84.79 595.02 83.45 595.34 C82.04 596.26 80.62 597.19 79.24 598.15 C77.13 599.55 74.97 600.83 72.77 602.09 C72.02 602.51 71.27 602.94 70.5 603.38 C68.45 604.34 68.45 604.34 65.45 604.34 C65.45 605 65.45 605.66 65.45 606.34 C58.83 609.34 58.83 609.34 55.45 609.34 C55.45 610 55.45 610.66 55.45 611.34 C52.81 611.67 50.17 612 47.45 612.34 C47.45 613 47.45 613.66 47.45 614.34 C42.45 616.34 42.45 616.34 40.14 617.21 C37.82 618.18 35.68 619.28 33.45 620.46 C30.31 622.07 28.05 622.79 24.45 622.34 C24.45 623 24.45 623.66 24.45 624.34 C23.24 624.6 22.02 624.87 20.77 625.15 C17.19 626.03 14.6 627.4 11.45 629.34 C9.12 630.08 6.83 630.73 4.45 631.34 C3.55 631.6 2.64 631.86 1.7 632.13 C0.25 632.54 0.25 632.54 -1.23 632.96 C-2.14 633.22 -3.06 633.48 -4 633.75 C-6.55 634.34 -6.55 634.34 -10.55 634.34 C-9.47 634.93 -8.4 635.53 -7.3 636.15 C-4.56 637.72 -1.92 639.25 0.45 641.34 C0.45 642 0.45 642.66 0.45 643.34 C1.19 643.61 1.93 643.88 2.69 644.15 C5.34 645.29 7.32 646.52 9.61 648.24 C10.76 649.1 10.76 649.1 11.94 649.98 C13.15 650.9 13.15 650.9 14.39 651.84 C16.08 653.1 17.78 654.37 19.47 655.63 C20.31 656.26 21.14 656.88 22.01 657.53 C24.26 659.19 26.52 660.81 28.81 662.41 C29.46 662.87 30.12 663.33 30.79 663.8 C32 664.64 33.22 665.48 34.44 666.31 C35.81 667.27 37.14 668.3 38.45 669.34 C38.45 670 38.45 670.66 38.45 671.34 C39.11 671.34 39.77 671.34 40.45 671.34 C42.42 676.08 42.81 679.35 41.45 684.34 C38.95 687.21 38.95 687.21 36.45 689.34 C36.12 689.67 35.79 690 35.45 690.34 C29.76 691.3 25.47 690.82 20.67 687.52 C19.08 686.29 17.51 685.05 15.95 683.77 C14.3 682.49 12.65 681.2 11 679.91 C10.22 679.29 9.44 678.67 8.63 678.03 C5.2 675.36 1.6 672.97 -2.03 670.57 C-2.53 670.16 -3.03 669.76 -3.55 669.34 C-3.55 668.68 -3.55 668.02 -3.55 667.34 C-4.54 667.34 -5.53 667.34 -6.55 667.34 C-6.55 666.68 -6.55 666.02 -6.55 665.34 C-7.21 665.13 -7.87 664.92 -8.55 664.71 C-12.03 663.11 -14.77 661.03 -17.78 658.68 C-19.51 657.28 -19.51 657.28 -21.55 656.34 C-21.55 655.68 -21.55 655.02 -21.55 654.34 C-22.21 654.13 -22.87 653.92 -23.55 653.71 C-27.62 651.84 -31.23 649.36 -34.55 646.34 C-34.55 645.68 -34.55 645.02 -34.55 644.34 C-40.45 643.47 -44.92 642.96 -50.55 645.34 C-56.89 647.4 -63.34 648.37 -69.92 649.4 C-72.1 649.74 -74.27 650.08 -76.44 650.43 C-77.4 650.58 -78.36 650.73 -79.34 650.89 C-81.51 651.12 -81.51 651.12 -82.55 652.34 C-83.95 652.48 -85.36 652.56 -86.76 652.62 C-87.61 652.65 -88.46 652.69 -89.34 652.73 C-92.05 652.84 -92.05 652.84 -94.75 652.94 C-95.6 652.98 -96.45 653.02 -97.33 653.05 C-98.11 653.09 -98.9 653.12 -99.7 653.15 C-101.56 653.14 -101.56 653.14 -102.55 654.34 C-112.36 655.86 -122.49 655.66 -132.4 655.89 C-134.55 655.94 -136.69 656 -138.83 656.05 C-140.1 656.09 -141.37 656.12 -142.67 656.15 C-145.44 656.01 -145.44 656.01 -146.55 657.34 C-148.98 657.44 -151.39 657.48 -153.83 657.47 C-154.56 657.47 -155.28 657.47 -156.04 657.47 C-157.58 657.47 -159.12 657.47 -160.67 657.47 C-163.04 657.46 -165.41 657.47 -167.78 657.47 C-169.27 657.47 -170.77 657.47 -172.26 657.47 C-172.98 657.47 -173.69 657.47 -174.43 657.48 C-179.43 657.45 -179.43 657.45 -180.55 656.34 C-182.39 656.19 -184.24 656.11 -186.08 656.05 C-187.79 656 -187.79 656 -189.53 655.94 C-191.33 655.89 -191.33 655.89 -193.17 655.84 C-212.62 655.26 -212.62 655.26 -214.55 653.34 C-216.39 653.1 -218.25 652.92 -220.11 652.77 C-221.12 652.69 -222.13 652.61 -223.17 652.52 C-223.96 652.46 -224.74 652.4 -225.55 652.34 C-225.55 651.68 -225.55 651.02 -225.55 650.34 C-227.4 650.4 -227.4 650.4 -229.3 650.46 C-232.7 650.47 -234.53 649.94 -237.55 648.34 C-239.56 648.08 -241.57 647.83 -243.59 647.61 C-246.13 647.25 -248.23 646.4 -250.55 645.34 C-254.21 643.74 -257.58 642.89 -261.55 642.34 C-261.55 641.68 -261.55 641.02 -261.55 640.34 C-262.66 640.25 -263.77 640.17 -264.92 640.09 C-269.4 639.54 -273.22 638.04 -277.35 636.27 C-279.65 635.26 -279.65 635.26 -282.55 634.34 C-282.55 633.68 -282.55 633.02 -282.55 632.34 C-283.64 632.16 -283.64 632.16 -284.76 631.98 C-291.1 630.51 -296.68 626.53 -301.55 622.34 C-302.47 621.63 -303.4 620.93 -304.36 620.21 C-305.44 619.28 -305.44 619.28 -306.55 618.34 C-306.55 617.68 -306.55 617.02 -306.55 616.34 C-307.21 616.34 -307.87 616.34 -308.55 616.34 C-314.63 610.1 -317.27 603.02 -317.55 594.34 C-316.17 591.15 -316.17 591.15 -314.55 588.34 C-314.36 587.41 -314.17 586.48 -313.98 585.52 C-313.84 584.8 -313.69 584.08 -313.55 583.34 C-312.89 583.01 -312.23 582.68 -311.55 582.34 C-311.07 581.82 -310.6 581.3 -310.11 580.77 C-308.55 579.34 -308.55 579.34 -305.55 579.34 C-305.22 578.35 -304.89 577.36 -304.55 576.34 C-306.11 575.25 -306.11 575.25 -307.7 574.13 C-317.27 567.43 -326.7 560.59 -335.99 553.51 C-337.3 552.52 -338.65 551.57 -340 550.62 C-340.76 549.99 -340.76 549.99 -341.55 549.34 C-341.55 548.68 -341.55 548.02 -341.55 547.34 C-342.16 547.03 -342.78 546.72 -343.42 546.4 C-344.8 545.71 -346.17 545.02 -347.55 544.34 C-347.55 543.68 -347.55 543.02 -347.55 542.34 C-348.14 542.09 -348.74 541.84 -349.36 541.59 C-352.06 540.04 -353.11 539.13 -354.55 536.34 C-355.08 533.23 -355.15 530.44 -354.55 527.34 C-352.11 524.24 -349.81 522.51 -346.55 520.34 C-341.88 519.81 -338.93 519.7 -335.03 522.42 C-333.91 523.31 -332.82 524.22 -331.73 525.15 C-331.17 525.6 -330.62 526.05 -330.04 526.52 C-324.53 531.01 -324.53 531.01 -322.55 533.34 C-322.55 534 -322.55 534.66 -322.55 535.34 C-321.56 535.34 -320.57 535.34 -319.55 535.34 C-319.55 536 -319.55 536.66 -319.55 537.34 C-318.23 537.67 -316.91 538 -315.55 538.34 C-315.55 539 -315.55 539.66 -315.55 540.34 C-314.97 540.61 -314.4 540.88 -313.81 541.16 C-311.53 542.34 -309.49 543.67 -307.39 545.13 C-306.6 545.67 -305.81 546.22 -305 546.78 C-304.17 547.35 -303.34 547.93 -302.48 548.52 C-282.77 562.41 -282.77 562.41 -260.55 571.34 C-261.54 571.67 -262.53 572 -263.55 572.34 C-263.55 573 -263.55 573.66 -263.55 574.34 C-262.96 574.14 -262.37 573.95 -261.76 573.74 C-258.08 573.07 -255.26 575.24 -252.11 576.96 C-245.09 580.63 -238.01 583.66 -230.55 586.34 C-229.74 586.64 -228.93 586.94 -228.09 587.25 C-210.81 593.64 -193.39 597.8 -175.23 600.71 C-174.44 600.84 -173.65 600.97 -172.84 601.1 C-158.77 603.34 -145 604.53 -130.73 604.52 C-130.05 604.52 -129.37 604.52 -128.66 604.52 C-106.86 604.48 -84.99 603.5 -63.55 599.34 C-62.8 599.2 -62.05 599.06 -61.27 598.92 C-47.99 596.51 -35.31 592.7 -22.55 588.34 C-21.6 588.02 -20.66 587.7 -19.69 587.37 C-7.48 583.19 4.09 578.46 15.45 572.34 C16.82 571.62 16.82 571.62 18.21 570.89 C20.98 569.41 23.72 567.88 26.45 566.34 C27.12 565.97 27.79 565.6 28.48 565.22 C40.05 558.81 50.88 551.79 61.45 543.84 C63.25 542.49 65.07 541.16 66.91 539.85 C74.91 533.98 81.73 527.28 88.63 520.17 C91.84 516.88 95.22 513.85 98.7 510.85 C109.88 501.2 118.57 489.05 127.45 477.34 C127.93 476.71 128.41 476.09 128.9 475.44 C142.97 456.92 153.83 436.89 162.45 415.34 C163.02 413.93 163.02 413.93 163.6 412.49 C176.53 379.9 184.8 346.22 188.45 311.34 C188.55 310.45 188.65 309.57 188.74 308.66 C189.7 298.41 189.61 288.15 189.58 277.87 C189.58 274.68 189.58 271.5 189.59 268.32 C189.59 266.29 189.59 264.26 189.59 262.23 C189.59 261.28 189.59 260.33 189.59 259.36 C189.59 258.04 189.59 258.04 189.58 256.69 C189.58 255.92 189.58 255.15 189.58 254.36 C189.53 252.13 189.53 252.13 188.45 249.34 C188.33 247.89 188.25 246.44 188.21 244.98 C188.18 244.13 188.14 243.28 188.11 242.4 C188.05 240.63 187.99 238.86 187.94 237.09 C187.73 232 187.12 227.33 185.92 222.39 C185.28 219.55 185.07 216.74 184.89 213.84 C184.96 210.27 184.96 210.27 183.45 207.34 C183.1 205.36 182.8 203.38 182.52 201.4 C181.25 191.47 181.25 191.47 178.48 181.91 C177.38 179.16 176.73 176.48 176.08 173.59 C174.94 168.87 173.43 164.67 171.37 160.29 C169.08 155.4 168.09 150.68 167.45 145.34 C166.79 145.34 166.13 145.34 165.45 145.34 C165.16 144.41 165.16 144.41 164.86 143.46 C158.31 124.07 145.6 100.95 130.78 86.73 C129.45 85.34 129.45 85.34 129.45 83.34 C128.79 83.34 128.13 83.34 127.45 83.34 C126.02 81.84 126.02 81.84 124.45 79.9 C122.31 77.18 122.31 77.18 119.45 75.34 C119.45 74.68 119.45 74.02 119.45 73.34 C118.46 73.01 117.47 72.68 116.45 72.34 C116.45 71.68 116.45 71.02 116.45 70.34 C115.79 70.34 115.13 70.34 114.45 70.34 C114.45 69.68 114.45 69.02 114.45 68.34 C113.46 68.01 112.47 67.68 111.45 67.34 C111.45 66.68 111.45 66.02 111.45 65.34 C110.86 65.06 110.27 64.78 109.66 64.49 C107.62 63.42 105.96 62.29 104.16 60.87 C87.83 48.16 70.74 38.69 51.33 31.41 C49.49 30.73 47.66 30.01 45.85 29.26 C38.23 26.33 29.73 25.79 21.68 24.8 C18.45 24.34 18.45 24.34 15.45 23.34 C13.7 23.24 11.95 23.21 10.2 23.2 C8.67 23.2 8.67 23.2 7.11 23.2 C6.05 23.2 4.99 23.21 3.89 23.21 C2.82 23.21 1.76 23.2 0.66 23.2 C-0.87 23.2 -0.87 23.2 -2.42 23.2 C-3.36 23.2 -4.29 23.21 -5.26 23.21 C-7.58 23.19 -7.58 23.19 -9.55 24.34 C-11.71 24.68 -13.88 24.99 -16.05 25.27 C-24.81 26.5 -32.79 27.79 -40.97 31.27 C-43.69 32.4 -46.45 33.37 -49.23 34.34 C-52.54 35.51 -55.53 36.78 -58.55 38.59 C-61.55 40.34 -61.55 40.34 -64.55 40.34 C-64.55 41 -64.55 41.66 -64.55 42.34 C-68.48 44.65 -72.24 46.77 -76.55 48.34 C-76.55 49 -76.55 49.66 -76.55 50.34 C-77.54 50.34 -78.53 50.34 -79.55 50.34 C-79.55 51 -79.55 51.66 -79.55 52.34 C-81.24 53.9 -83 55.39 -84.8 56.84 C-85.77 57.63 -86.74 58.42 -87.75 59.24 C-90.55 61.34 -90.55 61.34 -92.78 62.37 C-95.1 63.64 -95.49 64.94 -96.55 67.34 C-97.51 68.78 -98.51 70.19 -99.55 71.59 C-100.06 72.29 -100.58 73 -101.11 73.73 C-101.58 74.26 -102.06 74.79 -102.55 75.34 C-103.21 75.34 -103.87 75.34 -104.55 75.34 C-104.92 76.11 -104.92 76.11 -105.3 76.9 C-106.94 80.11 -108.74 83.21 -110.55 86.34 C-111.21 86.34 -111.87 86.34 -112.55 86.34 C-112.65 86.89 -112.76 87.45 -112.87 88.02 C-113.67 90.77 -114.92 92.92 -116.36 95.4 C-118.98 100.1 -120.94 104.76 -122.68 109.85 C-123.55 112.34 -123.55 112.34 -125.11 115.84 C-135.11 140.19 -135.22 173.83 -126.25 198.43 C-125.09 203.22 -126.12 207.13 -128.55 211.34 C-129.21 211.34 -129.87 211.34 -130.55 211.34 C-130.88 212.33 -131.21 213.32 -131.55 214.34 C-138.65 214.53 -144.72 214.48 -151.55 212.34 C-154.2 212.02 -156.85 211.82 -159.51 211.61 C-166.26 211 -173.07 210.09 -179.61 208.27 C-183.83 207.13 -188.05 206.93 -192.39 206.61 C-199.84 205.96 -207.12 204.48 -214.39 202.77 C-216.69 202.31 -218.95 202.09 -221.3 201.9 C-225.03 201.53 -227.53 200.69 -230.55 198.34 C-232.11 195.22 -231.91 192.76 -231.55 189.34 C-229.55 187.65 -229.55 187.65 -226.55 186.34 C-225.32 185.69 -224.09 185.05 -222.86 184.4 C-218.98 182.48 -215.01 180.91 -210.98 179.34 C-208.77 178.43 -206.67 177.43 -204.55 176.34 C-201.7 174.87 -198.84 173.62 -195.86 172.46 C-191.85 170.9 -187.95 169.16 -184.05 167.34 C-179.36 165.15 -174.65 163.15 -169.83 161.28 C-167.52 160.33 -165.33 159.24 -163.11 158.09 C-159.55 156.34 -159.55 156.34 -156.55 156.34 C-156.49 155.23 -156.42 154.11 -156.36 152.97 C-156.11 148.42 -155.83 143.88 -155.55 139.34 C-155.49 138.37 -155.42 137.4 -155.36 136.4 C-154.83 129.85 -153.31 123.66 -151.55 117.34 C-151.26 116.29 -150.97 115.25 -150.67 114.18 C-145.88 97.76 -138.49 81.34 -128.55 67.34 C-127.89 67.34 -127.23 67.34 -126.55 67.34 C-126.55 66.35 -126.55 65.36 -126.55 64.34 C-125.89 64.34 -125.23 64.34 -124.55 64.34 C-124.14 63.47 -124.14 63.47 -123.73 62.59 C-122.53 60.3 -121.17 58.34 -119.61 56.27 C-119.1 55.6 -118.6 54.93 -118.08 54.24 C-116.65 52.46 -115.26 50.84 -113.55 49.34 C-112.89 49.34 -112.23 49.34 -111.55 49.34 C-111.22 48.35 -110.89 47.36 -110.55 46.34 C-109.89 46.34 -109.23 46.34 -108.55 46.34 C-108.55 45.68 -108.55 45.02 -108.55 44.34 C-107.89 44.34 -107.23 44.34 -106.55 44.34 C-106.22 43.35 -105.89 42.36 -105.55 41.34 C-104.89 41.34 -104.23 41.34 -103.55 41.34 C-103.55 40.68 -103.55 40.02 -103.55 39.34 C-101.87 37.83 -101.87 37.83 -99.67 36.21 C-98.95 35.67 -98.23 35.13 -97.49 34.58 C-95.55 33.34 -95.55 33.34 -93.55 33.34 C-93.55 32.68 -93.55 32.02 -93.55 31.34 C-87.43 25.99 -80.55 22.11 -73.25 18.64 C-71.07 17.59 -69.04 16.48 -66.98 15.21 C-63.19 13.14 -59.39 11.76 -55.32 10.35 C-52.74 9.41 -50.33 8.33 -47.86 7.15 C-43.72 5.24 -40.06 4.74 -35.55 4.34 C-35.22 4.01 -34.89 3.68 -34.55 3.34 C-23.12 0.06 -11.8 -0.1 0 0 Z M211.45 278.34 C212.45 280.34 212.45 280.34 212.45 280.34 Z M217.45 433.34 C217.12 434.33 216.79 435.32 216.45 436.34 C217.44 436.01 218.43 435.68 219.45 435.34 C219.45 434.68 219.45 434.02 219.45 433.34 C218.79 433.34 218.13 433.34 217.45 433.34 Z M198.45 474.34 C198.45 475.33 198.45 476.32 198.45 477.34 C199.44 477.01 200.43 476.68 201.45 476.34 C201.45 475.68 201.45 475.02 201.45 474.34 C200.46 474.34 199.47 474.34 198.45 474.34 Z M190.45 487.34 C190.45 488.33 190.45 489.32 190.45 490.34 C191.44 490.01 192.43 489.68 193.45 489.34 C193.45 488.68 193.45 488.02 193.45 487.34 C192.46 487.34 191.47 487.34 190.45 487.34 Z M180.45 502.34 C180.45 503.33 180.45 504.32 180.45 505.34 C181.44 505.01 182.43 504.68 183.45 504.34 C183.45 503.68 183.45 503.02 183.45 502.34 C182.46 502.34 181.47 502.34 180.45 502.34 Z M174.45 512.34 C175.45 514.34 175.45 514.34 175.45 514.34 Z M130.45 558.34 C130.12 559.33 129.79 560.32 129.45 561.34 C130.44 561.01 131.43 560.68 132.45 560.34 C132.45 559.68 132.45 559.02 132.45 558.34 C131.79 558.34 131.13 558.34 130.45 558.34 Z M86.45 589.34 C86.12 590.33 85.79 591.32 85.45 592.34 C86.44 592.01 87.43 591.68 88.45 591.34 C88.45 590.68 88.45 590.02 88.45 589.34 C87.79 589.34 87.13 589.34 86.45 589.34 Z M74.45 596.34 C74.12 597.33 73.79 598.32 73.45 599.34 C74.44 599.01 75.43 598.68 76.45 598.34 C76.45 597.68 76.45 597.02 76.45 596.34 C75.79 596.34 75.13 596.34 74.45 596.34 Z " fill="#000102" transform="translate(786.5458984375,262.663818359375)"/>
<path d="M0 0 C0.33 0 0.66 0 1 0 C1 1.65 1 3.3 1 5 C1.58 5.21 2.15 5.41 2.75 5.62 C8.59 9.2 10.95 16.78 13 23 C13.51 25.36 13.79 27.59 14 30 C14.66 30 15.32 30 16 30 C16.12 30.6 16.23 31.2 16.35 31.82 C16.88 34.53 17.41 37.23 17.94 39.94 C18.12 40.88 18.3 41.83 18.49 42.8 C18.67 43.7 18.84 44.6 19.03 45.53 C19.27 46.78 19.27 46.78 19.52 48.05 C19.82 49.99 19.82 49.99 21 51 C21.1 52.74 21.13 54.49 21.13 56.24 C21.13 57.36 21.14 58.47 21.14 59.63 C21.14 61.45 21.14 61.45 21.13 63.31 C21.13 65.17 21.13 65.17 21.14 67.07 C21.14 69.69 21.14 72.32 21.13 74.95 C21.12 78.32 21.13 81.69 21.13 85.07 C21.14 88.27 21.14 91.48 21.13 94.69 C21.13 95.9 21.14 97.12 21.14 98.37 C21.14 99.49 21.13 100.61 21.13 101.76 C21.13 103.25 21.13 103.25 21.13 104.76 C21 107 21 107 20 108 C19.63 110.33 19.3 112.66 19 115 C18.11 121.89 18.11 121.89 17 123 C16.79 124.33 16.63 125.66 16.5 127 C16.11 130.89 16.11 130.89 15 132 C14.68 133.51 14.39 135.04 14.12 136.56 C13.37 140.5 12.34 144.03 10.85 147.73 C9.76 150.64 8.89 153.59 8 156.56 C6.6 161.21 5.05 165.6 3 170 C2.34 170 1.68 170 1 170 C1 171.65 1 173.3 1 175 C0.34 175 -0.32 175 -1 175 C-1.33 177.64 -1.66 180.28 -2 183 C-2.66 183 -3.32 183 -4 183 C-4.06 183.78 -4.12 184.57 -4.19 185.38 C-5.71 192.18 -8.76 198.32 -14 203 C-14.33 203.99 -14.66 204.98 -15 206 C-15.66 206 -16.32 206 -17 206 C-17.33 207.98 -17.66 209.96 -18 212 C-19.32 212.33 -20.64 212.66 -22 213 C-21.92 213.74 -21.84 214.49 -21.75 215.25 C-22.08 218.85 -23.41 219.56 -26 222 C-26.77 223.58 -26.77 223.58 -27.56 225.19 C-29 228 -29 228 -32 229 C-32.33 230.65 -32.66 232.3 -33 234 C-33.33 233.34 -33.66 232.68 -34 232 C-34.99 232 -35.98 232 -37 232 C-36.34 233.32 -35.68 234.64 -35 236 C-35.48 236.45 -35.96 236.89 -36.46 237.36 C-41.31 241.96 -41.31 241.96 -44 248 C-44.66 248 -45.32 248 -46 248 C-46.27 248.59 -46.53 249.18 -46.81 249.79 C-48.02 252.04 -49.28 253.55 -51.07 255.38 C-51.69 256.01 -52.31 256.65 -52.95 257.31 C-53.62 257.98 -54.29 258.66 -54.98 259.36 C-55.68 260.06 -56.37 260.76 -57.09 261.48 C-58.55 262.96 -60.02 264.44 -61.49 265.92 C-63.74 268.18 -65.97 270.45 -68.2 272.73 C-69.62 274.17 -71.05 275.61 -72.48 277.04 C-73.15 277.73 -73.81 278.41 -74.49 279.11 C-78.26 282.84 -80.52 284.59 -86 285 C-87.44 286.95 -87.44 286.95 -88 289 C-91 289 -91 289 -93 288 C-93 288.99 -93 289.98 -93 291 C-92.34 291.33 -91.68 291.66 -91 292 C-94.06 294.62 -94.73 295 -99 295 C-99.09 295.61 -99.18 296.22 -99.27 296.84 C-100.21 299.61 -101.23 300.1 -103.75 301.5 C-106.21 302.92 -108.3 304.25 -110.5 306.06 C-112.7 307.77 -114.58 308.82 -117.06 310 C-120.36 311.57 -122.45 313.36 -125 316 C-126.33 316.35 -127.66 316.69 -129 317 C-130.42 317.92 -131.83 318.85 -133.22 319.81 C-135.33 321.22 -137.49 322.49 -139.69 323.75 C-140.81 324.39 -140.81 324.39 -141.95 325.05 C-144 326 -144 326 -147 326 C-147 326.66 -147 327.32 -147 328 C-153.62 331 -153.62 331 -157 331 C-157 331.66 -157 332.32 -157 333 C-159.64 333.33 -162.28 333.66 -165 334 C-165 334.66 -165 335.32 -165 336 C-170 338 -170 338 -172.31 338.88 C-174.64 339.85 -176.78 340.94 -179 342.12 C-182.14 343.73 -184.41 344.45 -188 344 C-188 344.66 -188 345.32 -188 346 C-189.83 346.4 -189.83 346.4 -191.69 346.81 C-195.26 347.7 -197.86 349.07 -201 351 C-202.62 351.52 -204.25 352.03 -205.91 352.46 C-207.52 352.88 -209.12 353.34 -210.72 353.82 C-211.68 354.11 -212.64 354.39 -213.62 354.69 C-214.52 354.96 -215.42 355.23 -216.35 355.51 C-221.57 356.47 -225.54 354.61 -230 352 C-232.53 350.08 -235 348.09 -237.45 346.07 C-240.89 343.28 -244.43 340.63 -248 338 C-245.4 335.4 -242.62 334.86 -239.19 333.88 C-228.92 330.79 -218.95 326.98 -209 323 C-207.96 322.59 -207.96 322.59 -206.91 322.17 C-197.73 318.45 -188.93 314.02 -180.12 309.5 C-179.08 308.97 -178.03 308.43 -176.95 307.88 C-171.04 304.8 -165.54 301.45 -160.14 297.54 C-157.7 295.78 -155.19 294.19 -152.62 292.62 C-146.49 288.75 -140.74 284.44 -135 280 C-134.45 279.58 -133.9 279.15 -133.33 278.72 C-111.68 262.17 -111.68 262.17 -92.98 242.46 C-90.82 239.77 -88.44 237.43 -86 235 C-84.54 233.29 -83.1 231.56 -81.69 229.81 C-80.91 228.85 -80.13 227.88 -79.32 226.88 C-78.55 225.93 -77.79 224.98 -77 224 C-76.34 223.19 -75.67 222.39 -74.99 221.55 C-71.03 216.7 -67.28 211.71 -63.62 206.62 C-63.2 206.03 -62.77 205.43 -62.32 204.82 C-60.3 201.98 -58.43 199.19 -57 196 C-56.34 196 -55.68 196 -55 196 C-54.75 195.32 -54.51 194.65 -54.25 193.95 C-52.74 190.39 -50.86 187.1 -48.94 183.75 C-39.52 167.49 -39.52 167.49 -31.88 150.36 C-30.87 147.66 -29.75 145.03 -28.62 142.38 C-22.58 127.79 -17.9 113.2 -13.8 97.94 C-13.28 96.04 -12.76 94.15 -12.22 92.25 C-10.22 85.19 -8.76 78.09 -7.44 70.88 C-7.23 69.78 -7.02 68.68 -6.81 67.55 C-3.89 51.77 -2.65 36.07 -1.94 20.06 C-1.82 17.49 -1.7 14.91 -1.58 12.34 C-1.51 10.75 -1.43 9.17 -1.37 7.58 C-1.11 2.22 -1.11 2.22 0 0 Z M5 155 C4.67 155.99 4.34 156.98 4 158 C4.99 157.67 5.98 157.34 7 157 C7 156.34 7 155.68 7 155 C6.34 155 5.68 155 5 155 Z M-14 196 C-14 196.99 -14 197.98 -14 199 C-13.01 198.67 -12.02 198.34 -11 198 C-11 197.34 -11 196.68 -11 196 C-11.99 196 -12.98 196 -14 196 Z M-22 209 C-22 209.99 -22 210.98 -22 212 C-21.01 211.67 -20.02 211.34 -19 211 C-19 210.34 -19 209.68 -19 209 C-19.99 209 -20.98 209 -22 209 Z M-32 224 C-32 224.99 -32 225.98 -32 227 C-31.01 226.67 -30.02 226.34 -29 226 C-29 225.34 -29 224.68 -29 224 C-29.99 224 -30.98 224 -32 224 Z M-38 234 C-37 236 -37 236 -37 236 Z M-82 280 C-82.33 280.99 -82.66 281.98 -83 283 C-82.01 282.67 -81.02 282.34 -80 282 C-80 281.34 -80 280.68 -80 280 C-80.66 280 -81.32 280 -82 280 Z M-126 311 C-126.33 311.99 -126.66 312.98 -127 314 C-126.01 313.67 -125.02 313.34 -124 313 C-124 312.34 -124 311.68 -124 311 C-124.66 311 -125.32 311 -126 311 Z M-138 318 C-138.33 318.99 -138.66 319.98 -139 321 C-138.01 320.67 -137.02 320.34 -136 320 C-136 319.34 -136 318.68 -136 318 C-136.66 318 -137.32 318 -138 318 Z " fill="#3DE1FA" transform="translate(999,541)"/>
<path d="M0 0 C3.62 1.85 5.83 3.57 8 7 C8.98 11.33 8.79 15.37 6.85 19.38 C5.27 21.75 3.6 23.97 1.81 26.19 C1.23 26.94 0.66 27.7 0.06 28.47 C-1.07 29.96 -2.22 31.43 -3.38 32.9 C-4.93 34.9 -6.37 36.96 -7.8 39.05 C-8.53 40.02 -9.25 41 -10 42 C-10.66 42 -11.32 42 -12 42 C-12.27 42.57 -12.54 43.14 -12.81 43.73 C-14.04 46.08 -15.43 48.12 -17 50.25 C-17.52 50.96 -18.03 51.66 -18.56 52.39 C-19.04 52.92 -19.51 53.45 -20 54 C-20.66 54 -21.32 54 -22 54 C-22.4 54.86 -22.4 54.86 -22.82 55.75 C-24.02 58.04 -25.38 60 -26.94 62.06 C-27.44 62.73 -27.95 63.41 -28.46 64.1 C-29.9 65.87 -31.28 67.5 -33 69 C-33.66 69 -34.32 69 -35 69 C-35.33 69.99 -35.66 70.98 -36 72 C-36.66 72 -37.32 72 -38 72 C-38 72.66 -38 73.32 -38 74 C-38.66 74 -39.32 74 -40 74 C-40.33 74.99 -40.66 75.98 -41 77 C-41.66 77 -42.32 77 -43 77 C-43.27 77.64 -43.54 78.28 -43.81 78.94 C-45 81 -45 81 -48 82 C-48.68 83.32 -49.35 84.66 -50 86 C-52 88.25 -52 88.25 -54 90 C-54.66 90 -55.32 90 -56 90 C-56 90.66 -56 91.32 -56 92 C-56.66 92 -57.32 92 -58 92 C-58.33 92.99 -58.66 93.98 -59 95 C-59.66 95 -60.32 95 -61 95 C-61 95.66 -61 96.32 -61 97 C-62.69 98.56 -64.46 100.05 -66.25 101.5 C-67.22 102.29 -68.2 103.09 -69.2 103.91 C-71.45 105.59 -73.45 106.88 -76 108 C-76 108.66 -76 109.32 -76 110 C-79.46 113 -79.46 113 -82 113 C-82 113.66 -82 114.32 -82 115 C-83.55 116.41 -83.55 116.41 -85.75 118.06 C-86.56 118.67 -87.37 119.28 -88.21 119.91 C-89.13 120.6 -90.05 121.29 -91 122 C-92.07 122.82 -93.13 123.64 -94.2 124.46 C-95.28 125.29 -96.36 126.11 -97.44 126.94 C-98.95 128.1 -98.95 128.1 -100.5 129.28 C-103 131 -103 131 -105 131 C-105 131.66 -105 132.32 -105 133 C-109.38 136 -109.38 136 -112 136 C-112 136.66 -112 137.32 -112 138 C-114.27 139.69 -114.27 139.69 -117.25 141.56 C-118.22 142.18 -119.2 142.8 -120.2 143.44 C-122.57 144.76 -124.36 145.54 -127 146 C-127 146.66 -127 147.32 -127 148 C-128.72 149.37 -128.72 149.37 -131.06 150.88 C-131.89 151.41 -132.71 151.94 -133.56 152.48 C-136.66 154.41 -139.8 156.22 -143 158 C-143.62 158.37 -144.24 158.75 -144.88 159.13 C-149.67 162 -149.67 162 -153 162 C-153 162.66 -153 163.32 -153 164 C-153.67 164.33 -154.34 164.66 -155.03 165 C-161.26 168.08 -167.43 171.28 -173.56 174.56 C-179.22 177.58 -184.9 180.43 -190.77 183.01 C-192.65 183.84 -194.49 184.76 -196.31 185.69 C-199 187 -199 187 -201.8 187.93 C-204.91 188.97 -207.91 190.16 -210.94 191.44 C-211.99 191.88 -213.04 192.32 -214.13 192.77 C-216.23 193.67 -218.31 194.6 -220.38 195.56 C-223.85 196.94 -227.27 197.94 -230.88 198.94 C-235.77 200.29 -240.3 201.81 -244.84 204.07 C-251.17 206.8 -258.15 208 -264.86 209.5 C-267.84 210.18 -270.65 210.86 -273.49 212 C-277.07 213.42 -280.74 214.14 -284.5 214.94 C-286.12 215.29 -287.75 215.64 -289.37 215.99 C-290.16 216.16 -290.96 216.33 -291.77 216.51 C-294.71 217.16 -297.64 217.86 -300.56 218.56 C-311.32 221.05 -322.1 223.01 -333.12 223.76 C-336.2 224.02 -339.2 224.45 -342.25 224.94 C-344.5 225.29 -346.75 225.65 -349 226 C-350.08 226.17 -351.16 226.35 -352.27 226.53 C-364.95 228.37 -377.58 228.35 -390.38 228.31 C-391.54 228.31 -392.7 228.31 -393.9 228.31 C-408.54 228.29 -423.1 227.99 -437.69 226.62 C-438.37 226.56 -439.04 226.5 -439.74 226.43 C-461.29 224.36 -461.29 224.36 -465.06 220.31 C-467.22 216.62 -467.92 214.27 -468 210 C-467.06 206.56 -467.06 206.56 -466 204 C-465.34 204 -464.68 204 -464 204 C-463.67 203.01 -463.34 202.02 -463 201 C-456.22 200.02 -450.11 200.12 -443.31 200.88 C-441.95 201.01 -441.95 201.01 -440.55 201.15 C-437.08 201.51 -433.66 201.88 -430.23 202.51 C-427.07 202.99 -424.11 203.13 -420.93 203.15 C-419.75 203.15 -418.57 203.16 -417.35 203.16 C-416.09 203.17 -414.83 203.17 -413.53 203.17 C-411.56 203.17 -411.56 203.17 -409.54 203.18 C-406.76 203.18 -403.98 203.19 -401.2 203.19 C-397.67 203.19 -394.14 203.2 -390.62 203.22 C-387.87 203.23 -385.13 203.23 -382.38 203.23 C-380.46 203.23 -378.54 203.24 -376.62 203.25 C-369.51 203.23 -362.75 202.69 -355.74 201.46 C-352.22 200.87 -348.82 200.69 -345.25 200.56 C-337.34 200.18 -329.73 198.84 -321.96 197.36 C-319.11 196.84 -316.24 196.46 -313.38 196.06 C-307.27 195.15 -301.41 193.58 -295.48 191.93 C-292.71 191.19 -290 190.57 -287.19 190.06 C-273.89 187.55 -260.86 183.16 -248 179 C-247.14 178.72 -246.28 178.45 -245.39 178.16 C-242.59 177.26 -239.79 176.35 -237 175.44 C-236.13 175.16 -235.26 174.88 -234.36 174.59 C-229.61 173.02 -225.21 171.21 -220.78 168.9 C-218.38 167.69 -215.92 166.8 -213.38 165.94 C-210.31 164.86 -207.54 163.77 -204.62 162.31 C-202.04 161.02 -199.84 160.42 -197 160 C-197 159.34 -197 158.68 -197 158 C-196.45 157.8 -195.9 157.61 -195.34 157.41 C-186.54 154.08 -178.17 149.68 -170.09 144.86 C-165.3 142 -165.3 142 -162 142 C-162 141.34 -162 140.68 -162 140 C-160.93 139.5 -159.86 139.01 -158.75 138.5 C-153.93 136.09 -149.56 133.12 -145.1 130.1 C-142.11 128.07 -139.1 126.08 -136.06 124.12 C-135.21 123.57 -134.35 123.02 -133.47 122.45 C-131.04 121.02 -128.64 119.97 -126 119 C-126 118.34 -126 117.68 -126 117 C-123.95 115.55 -123.95 115.55 -121.12 113.88 C-114.38 109.71 -108.39 104.85 -102.34 99.76 C-100 98 -100 98 -98 98 C-98 97.34 -98 96.68 -98 96 C-97.2 95.73 -96.39 95.46 -95.56 95.19 C-94.72 94.8 -93.87 94.4 -93 94 C-92.67 93.01 -92.34 92.02 -92 91 C-90.27 89.39 -88.47 87.86 -86.62 86.38 C-85.65 85.58 -84.67 84.78 -83.66 83.96 C-81 82 -81 82 -78 81 C-77.67 80.01 -77.34 79.02 -77 78 C-76.34 78 -75.68 78 -75 78 C-75 77.34 -75 76.68 -75 76 C-73.57 74.59 -73.57 74.59 -71.56 72.94 C-65.8 68.04 -60.28 62.86 -55.56 56.94 C-55.05 56.3 -54.53 55.66 -54 55 C-53.34 55 -52.68 55 -52 55 C-52 54.34 -52 53.68 -52 53 C-50.62 51.38 -50.62 51.38 -49 50 C-48.34 50 -47.68 50 -47 50 C-46.63 49.2 -46.63 49.2 -46.25 48.38 C-44.69 45.42 -42.97 42.7 -41 40 C-40.34 40 -39.68 40 -39 40 C-38.73 39.42 -38.46 38.85 -38.19 38.25 C-36.97 35.94 -35.7 33.98 -34 32 C-33.34 32 -32.68 32 -32 32 C-31.67 30.68 -31.34 29.36 -31 28 C-30.34 28 -29.68 28 -29 28 C-28.75 27.45 -28.49 26.89 -28.23 26.32 C-26.8 23.61 -25.08 21.27 -23.25 18.81 C-20.06 14.5 -17.07 10.12 -14.23 5.58 C-13.82 5.06 -13.42 4.54 -13 4 C-12.34 4 -11.68 4 -11 4 C-11 3.34 -11 2.68 -11 2 C-3.47 -1.62 -3.47 -1.62 0 0 Z " fill="#000102" transform="translate(727,474)"/>
<path d="M0 0 C0.62 0.19 1.24 0.37 1.88 0.56 C4.04 1.24 4.04 1.24 6 0 C7.7 0.66 7.7 0.66 9.75 1.77 C10.9 2.39 10.9 2.39 12.07 3.01 C12.89 3.46 13.71 3.91 14.56 4.38 C15.84 5.06 15.84 5.06 17.14 5.76 C20.53 7.57 23.91 9.41 27.29 11.25 C45.2 21.03 63.57 27.79 83 34 C83.77 34.25 84.54 34.5 85.33 34.76 C117.03 45.04 151.33 49.23 184.56 49.19 C185.35 49.19 186.15 49.19 186.96 49.19 C202.62 49.17 217.83 48.07 233.27 45.37 C240.89 44.34 240.89 44.34 244.96 46.76 C245.95 47.54 246.93 48.32 247.94 49.12 C248.46 49.54 248.98 49.95 249.52 50.37 C251.03 51.56 252.51 52.78 254 54 C254.72 54.59 255.45 55.18 256.19 55.79 C259.27 58.38 262.32 61 265 64 C265 64.66 265 65.32 265 66 C260.46 66.93 255.9 67.72 251.33 68.5 C249.05 68.77 249.05 68.77 248 70 C246.24 70.36 244.46 70.66 242.69 70.94 C241.61 71.11 240.54 71.28 239.43 71.46 C237.14 71.82 234.86 72.18 232.57 72.54 C231.5 72.71 230.42 72.88 229.31 73.06 C227.82 73.3 227.82 73.3 226.3 73.54 C224.05 73.77 224.05 73.77 223 75 C221.6 75.14 220.19 75.23 218.78 75.28 C217.93 75.32 217.08 75.36 216.21 75.39 C213.5 75.5 213.5 75.5 210.79 75.61 C209.94 75.64 209.09 75.68 208.22 75.72 C207.43 75.75 206.65 75.78 205.84 75.81 C203.98 75.81 203.98 75.81 203 77 C193.19 78.53 183.06 78.32 173.14 78.55 C171 78.6 168.85 78.66 166.71 78.72 C165.45 78.75 164.18 78.78 162.88 78.81 C160.1 78.68 160.1 78.68 159 80 C156.56 80.1 154.16 80.14 151.72 80.13 C150.99 80.13 150.26 80.13 149.51 80.14 C147.97 80.14 146.42 80.13 144.88 80.13 C142.51 80.13 140.14 80.13 137.77 80.14 C136.27 80.14 134.78 80.13 133.28 80.13 C132.21 80.14 132.21 80.14 131.12 80.14 C126.11 80.11 126.11 80.11 125 79 C123.16 78.85 121.31 78.77 119.46 78.72 C117.75 78.66 117.75 78.66 116.01 78.61 C114.81 78.57 113.61 78.54 112.38 78.5 C92.92 77.92 92.92 77.92 91 76 C89.15 75.77 87.3 75.59 85.44 75.44 C83.92 75.31 83.92 75.31 82.37 75.18 C81.59 75.12 80.81 75.06 80 75 C80 74.34 80 73.68 80 73 C78.76 73.04 77.52 73.08 76.25 73.12 C72.84 73.13 71.01 72.6 68 71 C65.99 70.74 63.97 70.49 61.95 70.28 C59.42 69.92 57.32 69.07 55 68 C51.33 66.4 47.96 65.55 44 65 C44 64.34 44 63.68 44 63 C42.89 62.92 41.77 62.84 40.62 62.75 C36.15 62.21 32.33 60.7 28.2 58.94 C25.89 57.92 25.89 57.92 23 57 C23 56.34 23 55.68 23 55 C22.27 54.88 21.54 54.77 20.78 54.64 C14.45 53.18 8.87 49.19 4 45 C2.61 43.95 2.61 43.95 1.19 42.88 C0.47 42.26 -0.26 41.64 -1 41 C-1 40.34 -1 39.68 -1 39 C-1.66 39 -2.32 39 -3 39 C-9.08 32.76 -11.72 25.68 -12 17 C-10.62 13.81 -10.62 13.81 -9 11 C-8.81 10.07 -8.63 9.14 -8.44 8.19 C-8.29 7.47 -8.15 6.74 -8 6 C-7.34 5.67 -6.68 5.34 -6 5 C-5.29 4.23 -5.29 4.23 -4.56 3.44 C-3 2 -3 2 0 2 C0 1.34 0 0.68 0 0 Z " fill="#3DE1FA" transform="translate(481,840)"/>
<path d="M0 0 C0 0.66 0 1.32 0 2 C0.66 2 1.32 2 2 2 C6.51 7.08 7.4 11.95 7.25 18.57 C6.9 21.93 5.83 24.18 4 27 C3.44 27.87 2.89 28.73 2.31 29.62 C-2.33 34.39 -6.98 36.24 -13.62 36.44 C-20.48 36.13 -24.16 34.1 -28.81 29.12 C-32.6 24.86 -33.14 21.01 -33.12 15.44 C-33.13 14.69 -33.13 13.95 -33.13 13.18 C-33 11.01 -32.6 9.09 -32 7 C-31.34 7 -30.68 7 -30 7 C-29.91 6.13 -29.91 6.13 -29.81 5.25 C-28.34 1.17 -24.49 -0.68 -21 -3 C-14.21 -4.82 -5.59 -4.66 0 0 Z " fill="#000102" transform="translate(746,389)"/>
<path d="M0 0 C5.28 0 10.56 0 16 0 C16 0.33 16 0.66 16 1 C10.72 1 5.44 1 0 1 C0 0.67 0 0.34 0 0 Z " fill="#000102" transform="translate(641,919)"/>
<path d="M0 0 C4.62 0 9.24 0 14 0 C14 0.33 14 0.66 14 1 C9.38 1 4.76 1 0 1 C0 0.67 0 0.34 0 0 Z " fill="#000102" transform="translate(592,919)"/>
<path d="M0 0 C2.97 0 5.94 0 9 0 C9 0.33 9 0.66 9 1 C6.03 1 3.06 1 0 1 C0 0.67 0 0.34 0 0 Z " fill="#000102" transform="translate(685,916)"/>
<path d="M0 0 C4 1 4 1 4 1 Z " fill="#000102" transform="translate(568,916)"/>
<path d="M0 0 C3 1 3 1 3 1 Z " fill="#000102" transform="translate(721,911)"/>
<path d="M0 0 C3 1 3 1 3 1 Z " fill="#000102" transform="translate(546,911)"/>
<path d="" fill="#000102" transform="translate(0,0)"/>
<path d="M0 0 C0.99 0.5 0.99 0.5 2 1 C1.01 1.5 1.01 1.5 0 2 C0 1.34 0 0.68 0 0 Z " fill="#3EE2FB" transform="translate(782,582)"/>
<path d="" fill="#000102" transform="translate(0,0)"/>
<path d="M0 0 C2 1 2 1 2 1 Z " fill="#000102" transform="translate(521,903)"/>
<path d="M0 0 C2 1 2 1 2 1 Z " fill="#000102" transform="translate(805,888)"/>
<path d="M0 0 C2 1 2 1 2 1 Z " fill="#000102" transform="translate(813,885)"/>
<path d="M0 0 C2 1 2 1 2 1 Z " fill="#000102" transform="translate(830,878)"/>
<path d="M0 0 C2 1 2 1 2 1 Z " fill="#000102" transform="translate(836,875)"/>
<path d="M0 0 C2 1 2 1 2 1 Z " fill="#000102" transform="translate(866,860)"/>
<path d="M0 0 C2 1 2 1 2 1 Z " fill="#000102" transform="translate(879,852)"/>
<path d="" fill="#000102" transform="translate(0,0)"/>
<path d="" fill="#000102" transform="translate(0,0)"/>
<path d="" fill="#000102" transform="translate(0,0)"/>
<path d="" fill="#000102" transform="translate(0,0)"/>
<path d="" fill="#000102" transform="translate(0,0)"/>
<path d="" fill="#000102" transform="translate(0,0)"/>
<path d="" fill="#000102" transform="translate(0,0)"/>
<path d="" fill="#000102" transform="translate(0,0)"/>
<path d="" fill="#000102" transform="translate(0,0)"/>
<path d="" fill="#000102" transform="translate(0,0)"/>
<path d="" fill="#000102" transform="translate(0,0)"/>
<path d="" fill="#000102" transform="translate(0,0)"/>
<path d="" fill="#000102" transform="translate(0,0)"/>
<path d="" fill="#3EE2FB" transform="translate(0,0)"/>
<path d="" fill="#000102" transform="translate(0,0)"/>
<path d="" fill="#3EE2FB" transform="translate(0,0)"/>
<path d="" fill="#000102" transform="translate(0,0)"/>
<path d="" fill="#000102" transform="translate(0,0)"/>
<path d="" fill="#3EE2FB" transform="translate(0,0)"/>
<path d="" fill="#000102" transform="translate(0,0)"/>
<path d="" fill="#000102" transform="translate(0,0)"/>
<path d="" fill="#3EE2FB" transform="translate(0,0)"/>
<path d="" fill="#000102" transform="translate(0,0)"/>
<path d="" fill="#000102" transform="translate(0,0)"/>
<path d="" fill="#000102" transform="translate(0,0)"/>
<path d="" fill="#3EE2FB" transform="translate(0,0)"/>
<path d="" fill="#000102" transform="translate(0,0)"/>
<path d="" fill="#000102" transform="translate(0,0)"/>
<path d="" fill="#000102" transform="translate(0,0)"/>
<path d="" fill="#000102" transform="translate(0,0)"/>
<path d="" fill="#000102" transform="translate(0,0)"/>
<path d="" fill="#000102" transform="translate(0,0)"/>
<path d="" fill="#000102" transform="translate(0,0)"/>
<path d="" fill="#3EE2FB" transform="translate(0,0)"/>
<path d="" fill="#000102" transform="translate(0,0)"/>
<path d="" fill="#000102" transform="translate(0,0)"/>
<path d="" fill="#3EE2FB" transform="translate(0,0)"/>
<path d="" fill="#000102" transform="translate(0,0)"/>
<path d="" fill="#3EE2FB" transform="translate(0,0)"/>
<path d="" fill="#000102" transform="translate(0,0)"/>
<path d="" fill="#3EE2FB" transform="translate(0,0)"/>
<path d="" fill="#3EE2FB" transform="translate(0,0)"/>
<path d="" fill="#3EE2FB" transform="translate(0,0)"/>
<path d="" fill="#3EE2FB" transform="translate(0,0)"/>
<path d="" fill="#3EE2FB" transform="translate(0,0)"/>
<path d="" fill="#3EE2FB" transform="translate(0,0)"/>
<path d="" fill="#3EE2FB" transform="translate(0,0)"/>
<path d="" fill="#3EE2FB" transform="translate(0,0)"/>
<path d="" fill="#000102" transform="translate(0,0)"/>
<path d="" fill="#000102" transform="translate(0,0)"/>
<path d="" fill="#000102" transform="translate(0,0)"/>
<path d="" fill="#000102" transform="translate(0,0)"/>
<path d="" fill="#3EE2FB" transform="translate(0,0)"/>
</svg>
