<?xml version="1.0" standalone="no"?>
<!DOCTYPE svg PUBLIC "-//W3C//DTD SVG 20010904//EN"
 "http://www.w3.org/TR/2001/REC-SVG-20010904/DTD/svg10.dtd">
<svg version="1.0" xmlns="http://www.w3.org/2000/svg"
 width="768.000000pt" height="432.000000pt" viewBox="0 0 768.000000 432.000000"
 preserveAspectRatio="xMidYMid meet">

<g transform="translate(0.000000,432.000000) scale(0.100000,-0.100000)"
fill="#000000" stroke="none">
<path d="M0 4055 c0 -212 3 -273 15 -301 8 -20 19 -33 25 -29 5 3 10 2 10 -4
0 -5 17 -15 38 -21 83 -25 110 -44 131 -90 26 -57 52 -101 71 -120 32 -32 69
-97 75 -133 4 -20 11 -40 16 -43 16 -9 10 -45 -16 -96 -19 -37 -24 -59 -19
-83 7 -36 -6 -83 -42 -161 -13 -28 -24 -59 -24 -68 0 -17 -69 -96 -84 -96 -4
0 -20 -10 -36 -21 -15 -12 -39 -23 -52 -24 -13 -2 -39 -10 -59 -19 l-36 -15
-6 -113 c-4 -62 -7 -258 -7 -435 0 -268 2 -323 14 -323 19 0 93 -98 110 -147
8 -22 17 -83 20 -134 4 -52 9 -105 11 -119 3 -14 12 -108 20 -210 17 -196 23
-224 77 -363 36 -90 48 -100 48 -38 1 29 2 33 11 18 7 -12 17 -15 35 -11 17 4
24 2 24 -7 0 -35 -14 -58 -42 -70 -27 -11 -29 -15 -23 -51 13 -72 12 -142 0
-278 -7 -74 -11 -137 -9 -139 10 -11 27 21 28 53 1 25 9 40 28 56 24 18 28 29
28 70 0 60 51 263 84 335 22 48 75 278 90 392 7 47 -8 65 -30 37 -13 -17 -14
-13 -8 33 5 36 3 58 -6 68 -7 8 -9 15 -5 15 4 0 3 6 -3 13 -20 24 14 137 37
123 4 -3 13 -38 20 -78 20 -110 36 -122 77 -57 14 23 29 37 34 33 4 -5 16 -45
25 -89 25 -115 57 -167 98 -159 27 5 34 18 48 84 6 30 14 66 18 80 5 15 2 38
-6 58 -12 30 -12 37 2 59 22 34 55 27 69 -14 6 -18 16 -37 23 -44 14 -14 101
-18 107 -4 3 6 5 2 5 -7 1 -10 5 -18 11 -18 6 0 6 9 1 22 -5 13 -4 55 1 95 9
65 8 76 -10 100 -41 58 -35 113 11 113 16 0 18 3 8 9 -12 7 -12 15 0 52 11 35
19 45 39 48 33 4 37 11 50 109 l12 85 -46 39 c-67 58 -63 79 26 112 l46 17 -1
112 c-2 110 -1 114 33 184 32 64 34 73 21 92 -7 12 -21 21 -31 21 -31 0 -44
25 -31 62 6 17 8 34 3 37 -4 3 -18 21 -31 39 -19 27 -20 33 -8 38 31 12 120
-55 130 -98 4 -14 15 -28 26 -31 26 -7 101 -104 101 -132 0 -14 -11 -33 -27
-45 -39 -31 -53 -60 -47 -97 5 -24 2 -34 -10 -39 -19 -7 -8 -33 31 -76 16 -16
30 -50 38 -90 16 -72 45 -139 45 -101 0 15 14 32 43 51 46 33 71 58 80 84 5
15 2 16 -19 8 -38 -15 -41 -13 -55 27 -12 38 -10 135 11 448 13 195 14 234 6
242 -3 3 -21 -2 -39 -12 -48 -26 -73 -17 -69 24 1 22 -3 38 -14 46 -12 9 -17
29 -18 78 0 37 -5 67 -11 68 -21 1 -58 47 -87 107 -16 35 -44 77 -62 95 -44
43 -47 56 -29 116 13 47 13 56 -1 93 -15 37 -15 43 -1 64 17 27 51 34 41 8 -3
-8 1 -31 9 -51 19 -44 19 -49 0 -33 -12 10 -15 10 -15 -3 0 -20 29 -45 31 -26
1 8 5 -18 9 -57 9 -87 42 -154 93 -188 21 -14 40 -26 42 -26 13 0 2 30 -19 53
-42 45 -56 71 -56 101 0 16 -7 38 -17 48 -15 17 -15 18 5 18 32 0 28 38 -8 88
-36 50 -40 87 -10 79 17 -4 19 -2 13 21 -3 15 -12 42 -20 60 -7 17 -16 58 -19
90 -6 57 -6 59 22 71 34 14 77 71 92 121 6 19 16 72 22 118 7 45 17 85 21 88
15 9 -1 24 -25 24 -33 0 -68 31 -82 71 -11 33 -11 32 -19 -39 -4 -41 -10 -86
-14 -100 -5 -18 -3 -35 6 -49 16 -25 3 -63 -22 -63 -10 0 -13 -11 -9 -47 2
-26 1 -55 -2 -66 -5 -17 -7 -16 -28 6 -28 31 -61 18 -70 -27 -17 -80 -26 -170
-35 -335 -11 -182 -19 -225 -48 -247 -33 -24 -56 -8 -67 48 -4 15 -14 29 -24
32 -14 5 -16 15 -14 55 3 34 -1 57 -12 73 -9 12 -16 36 -16 52 0 28 0 29 -20
11 -26 -23 -26 -69 0 -105 33 -46 36 -85 9 -103 -30 -21 -39 -14 -39 32 0 20
-6 43 -12 50 -11 11 -10 13 5 8 22 -8 21 -5 -3 43 -11 22 -20 49 -20 60 0 12
-5 18 -10 15 -12 -8 -13 5 -1 24 11 17 1 40 -43 94 -27 35 -29 39 -13 54 14
14 20 15 54 2 21 -8 47 -29 60 -48 13 -19 23 -31 23 -27 0 19 -45 91 -74 119
-62 60 -84 113 -100 234 -14 105 -13 153 4 153 4 0 19 25 34 55 14 30 32 55
38 55 6 0 9 3 5 6 -3 4 0 13 8 21 20 19 50 2 63 -37 6 -16 12 -30 14 -30 2 0
21 9 42 19 51 26 75 16 104 -44 27 -54 42 -48 42 17 0 20 5 49 12 63 10 22 9
28 -3 35 -8 5 -134 9 -281 9 l-268 -1 6 -23 c4 -16 -2 -33 -16 -53 -25 -34
-20 -72 9 -72 10 0 24 -7 31 -15 22 -26 27 -17 32 56 7 92 19 104 48 45 37
-78 36 -113 -6 -170 -35 -48 -36 -49 -36 -145 1 -126 19 -373 34 -435 12 -54
5 -197 -13 -274 -7 -26 -22 -61 -35 -79 -29 -39 -30 -71 -4 -146 28 -80 40
-174 24 -187 -17 -15 -73 53 -126 154 -39 75 -43 88 -46 171 -6 160 -5 240 7
311 17 109 23 156 25 197 l2 37 -32 -31 c-37 -35 -54 -32 -54 12 0 20 12 43
38 72 56 63 63 73 68 104 3 15 9 30 15 31 16 6 10 33 -16 64 -35 41 -41 74
-21 114 20 43 20 55 -1 99 -17 35 -17 37 6 80 14 27 20 51 16 64 -6 21 -12 21
-266 21 l-259 0 0 -265z m1114 -869 l40 -58 -32 -62 c-46 -87 -42 -116 23
-156 38 -24 44 -44 18 -72 -24 -27 -40 -22 -63 20 -12 20 -34 60 -50 87 -16
28 -30 56 -30 63 0 7 18 32 40 56 48 52 51 80 10 131 -34 43 -38 58 -13 53 9
-2 35 -29 57 -62z m-98 -287 c6 -19 19 -35 28 -37 9 -2 16 -12 16 -22 0 -11 6
-23 13 -27 11 -6 12 -68 6 -323 -8 -363 -19 -438 -63 -395 -8 9 -21 35 -27 58
-7 23 -16 47 -19 52 -17 24 -21 83 -21 299 0 202 13 405 28 429 10 16 28 0 39
-34z m468 -86 c-11 -38 -9 -110 4 -126 13 -16 8 -23 -48 -73 l-44 -39 25 35
c38 51 40 64 18 104 -24 46 -24 67 2 100 28 36 54 35 43 -1z m-756 -60 c39
-36 43 -44 62 -138 11 -55 24 -101 30 -103 6 -2 10 -48 10 -113 l0 -110 -20
19 c-15 14 -23 38 -28 83 -7 59 -9 65 -47 91 -22 15 -47 27 -55 28 -8 0 -21
13 -28 28 -23 53 -46 220 -34 251 9 24 67 5 110 -36z m145 -611 c4 -21 3 -31
-3 -27 -6 3 -10 15 -10 26 0 11 -7 19 -17 20 -11 0 -13 3 -5 6 6 2 12 14 13
26 0 21 1 21 8 2 4 -11 11 -35 14 -53z m147 -281 c-1 -13 -4 -12 -15 3 -8 11
-15 27 -15 35 1 13 4 12 15 -3 8 -11 15 -27 15 -35z m-250 -33 c13 -48 9 -108
-11 -155 -12 -31 -12 -34 14 -61 15 -15 27 -35 27 -43 -1 -20 -46 -69 -64 -69
-13 0 -14 4 -4 26 11 23 8 33 -17 79 l-29 54 24 44 c23 43 23 45 6 87 -16 40
-16 44 0 61 26 29 42 23 54 -23z m-279 -685 c33 -72 29 -112 -16 -167 -21 -26
-57 -59 -80 -75 l-43 -29 13 31 c35 89 25 109 -29 60 -17 -16 -7 -2 22 29 52
57 59 77 43 120 -5 14 -4 33 2 48 l10 25 7 -31 c8 -35 46 -94 61 -94 5 0 9 2
9 4 0 2 3 11 6 19 3 9 -9 29 -30 51 -40 40 -45 56 -16 56 13 0 26 -15 41 -47z"/>
<path d="M1683 4312 c-6 -4 -13 -15 -15 -26 -2 -14 19 -30 96 -71 113 -61 146
-71 139 -44 -3 9 0 20 5 23 12 7 54 -42 47 -54 -3 -4 37 -16 88 -25 50 -9 171
-45 267 -80 96 -34 184 -66 195 -70 37 -13 -139 87 -220 125 -44 21 -147 59
-229 84 -146 46 -180 61 -260 118 -38 27 -88 36 -113 20z"/>
<path d="M2639 4300 c18 -16 27 -18 37 -9 24 19 16 29 -23 29 l-38 -1 24 -19z"/>
<path d="M3322 4313 c12 -23 117 -242 127 -263 9 -20 10 -3 6 85 -3 61 -9 126
-13 145 -8 35 -8 35 -66 38 -32 2 -56 -1 -54 -5z"/>
<path d="M4196 4296 c-3 -11 -6 -32 -6 -46 0 -14 -14 -54 -30 -89 l-30 -63 37
6 c70 13 141 36 161 53 12 10 24 34 27 54 6 33 5 36 -16 34 -14 -1 -37 11 -57
29 -46 42 -78 51 -86 22z"/>
<path d="M4470 4302 c0 -10 11 -29 25 -42 23 -22 25 -22 25 -4 0 22 -26 64
-41 64 -5 0 -9 -8 -9 -18z"/>
<path d="M4911 4301 c-6 -11 -11 -28 -11 -39 0 -10 -11 -39 -24 -64 l-24 -45
34 -27 c19 -15 31 -32 28 -38 -4 -7 -2 -8 4 -4 7 4 12 3 12 -3 0 -6 21 -21 48
-33 42 -21 48 -27 53 -63 l6 -40 2 40 c1 22 4 49 7 60 4 17 -3 24 -35 39 -74
32 -77 74 -10 127 35 28 40 36 37 68 l-3 36 -57 3 c-48 3 -58 0 -67 -17z"/>
<path d="M5119 4294 c12 -15 21 -39 21 -55 0 -30 14 -46 25 -29 4 6 4 33 0 60
-6 47 -9 50 -37 50 l-29 0 20 -26z"/>
<path d="M5363 4313 c-18 -7 -16 -61 2 -79 8 -9 15 -30 15 -47 1 -18 7 -50 15
-72 18 -48 17 -45 4 -45 -12 0 -24 -12 -63 -64 -16 -21 -23 -36 -15 -33 8 3
51 18 96 32 60 19 81 30 77 40 -3 8 4 28 16 45 17 23 23 49 26 106 2 42 9 84
14 94 8 14 5 19 -13 24 -26 7 -157 7 -174 -1z"/>
<path d="M5905 4310 c-3 -5 0 -29 6 -52 7 -24 12 -47 11 -51 -4 -13 31 9 57
37 14 14 30 26 36 26 12 0 45 32 45 43 0 11 -148 8 -155 -3z"/>
<path d="M6201 4296 c-7 -17 -2 -46 17 -107 22 -73 25 -100 24 -205 l-1 -122
36 -5 c19 -4 44 -14 54 -23 16 -14 16 -18 3 -31 -8 -8 -12 -19 -9 -24 9 -14
41 -11 55 6 7 8 9 15 6 15 -4 0 -2 9 4 20 6 11 17 20 26 20 25 0 27 -28 5 -63
-24 -39 -61 -60 -82 -46 -23 14 -37 10 -44 -12 -8 -25 -4 -29 37 -38 29 -7 38
-3 75 31 24 21 49 38 56 38 8 0 19 -15 25 -32 10 -28 11 -22 6 42 -8 105 -5
147 11 209 14 53 14 55 -13 94 -33 49 -57 62 -42 22 20 -53 13 -71 -55 -131
-64 -55 -66 -56 -85 -39 -23 21 -27 55 -6 55 8 0 18 -9 21 -20 14 -45 59 -9
70 57 7 44 -1 68 -41 116 -36 43 -32 86 11 117 28 21 55 57 55 75 0 3 -47 5
-105 5 -102 0 -106 -1 -114 -24z"/>
<path d="M6550 4300 c20 -37 11 -71 -25 -104 -42 -39 -44 -67 -10 -118 15 -22
25 -51 25 -72 0 -24 5 -36 14 -36 13 0 22 21 65 145 5 17 15 63 22 103 14 83
34 96 42 26 7 -63 22 -75 44 -36 10 18 21 32 24 32 10 0 20 -112 13 -150 -3
-19 -20 -75 -36 -125 -29 -85 -30 -93 -19 -150 7 -33 13 -70 14 -83 1 -19 5
-22 22 -17 43 15 115 29 119 24 11 -10 -18 -85 -43 -113 -14 -16 -40 -34 -57
-42 l-32 -13 19 -69 c10 -38 24 -82 30 -98 7 -16 15 -57 19 -91 4 -36 14 -69
24 -78 28 -29 35 -50 35 -114 -1 -47 -5 -66 -19 -79 -10 -9 -30 -33 -43 -53
l-24 -35 27 -51 27 -50 27 24 c36 31 61 31 51 1 -11 -36 -15 -81 -8 -103 6
-19 6 -19 14 2 8 22 66 57 74 43 2 -4 6 -33 7 -63 2 -47 -1 -59 -20 -75 -12
-11 -22 -26 -22 -34 0 -19 -20 -38 -42 -38 -10 0 -18 -5 -18 -12 0 -7 -11 -23
-24 -37 -12 -15 -31 -46 -40 -71 -19 -49 -52 -90 -72 -90 -19 0 -34 33 -34 72
0 19 -7 43 -15 54 -14 18 -16 18 -29 1 -12 -16 -12 -22 0 -45 12 -23 11 -30
-4 -56 -24 -41 -45 -46 -37 -9 l7 28 -21 -25 c-11 -14 -25 -47 -31 -75 -15
-64 -32 -115 -40 -115 -31 1 -58 106 -40 155 6 16 15 86 21 157 9 120 8 131
-11 168 -18 36 -19 43 -6 63 12 19 12 28 0 70 -8 26 -19 47 -24 47 -5 0 -36
-18 -69 -41 -59 -40 -59 -41 -64 -97 -9 -105 -8 -224 3 -217 5 3 18 1 27 -4
13 -7 14 -10 4 -11 -11 0 -13 -14 -9 -64 5 -61 4 -65 -19 -75 -23 -11 -24 -15
-18 -64 4 -28 14 -72 21 -97 22 -71 17 -74 -37 -23 -54 52 -79 90 -79 123 0
11 -4 20 -9 20 -14 0 -51 -50 -51 -70 0 -23 -26 -44 -45 -36 -12 4 -15 -3 -15
-38 0 -25 -11 -68 -25 -99 -13 -31 -31 -83 -38 -116 -13 -55 -12 -65 6 -120
19 -58 18 -91 -2 -91 -12 0 -19 22 -26 80 -3 25 -15 92 -26 150 -12 58 -21
118 -21 134 1 24 -4 20 -29 -30 -21 -42 -29 -74 -29 -111 0 -46 -3 -54 -29
-72 -28 -20 -80 -29 -82 -13 -6 80 2 127 13 67 2 -13 12 -21 31 -23 40 -5 34
16 -19 64 -32 30 -44 37 -41 23 3 -10 1 -17 -4 -13 -13 8 -11 27 7 62 16 33
28 40 39 22 12 -20 21 -1 20 47 0 36 -4 48 -15 48 -9 0 -15 -9 -14 -23 1 -21
-2 -20 -36 13 l-37 36 -17 -36 c-14 -30 -17 -51 -11 -108 4 -40 11 -88 16
-107 5 -20 5 -55 1 -78 -6 -35 -13 -45 -41 -60 -28 -14 -44 -36 -82 -112 -47
-93 -47 -95 -26 -103 12 -4 35 -7 52 -5 28 3 31 7 39 56 5 28 13 52 17 52 8 0
19 -37 19 -67 0 -13 9 -33 19 -45 11 -13 29 -34 40 -48 l20 -25 1 125 c0 158
3 168 40 162 22 -3 32 -12 40 -37 6 -18 18 -39 27 -47 47 -39 133 -190 133
-234 0 -7 14 -23 30 -36 17 -12 35 -38 41 -59 12 -39 5 -124 -12 -134 -5 -4
-9 -14 -9 -23 0 -10 -11 -38 -25 -63 -24 -46 -25 -62 -8 -107 l9 -23 14 25 c7
14 17 26 22 26 4 0 25 15 45 33 21 18 60 46 86 61 l48 27 -6 47 c-4 26 -13 64
-21 85 -15 40 -17 110 -5 142 8 18 10 17 27 -13 40 -71 43 -72 44 -12 0 68 22
144 42 148 10 2 24 -15 38 -45 22 -44 24 -60 22 -198 -1 -82 -5 -171 -8 -198
-6 -47 -5 -47 29 -62 58 -24 87 -86 53 -114 -18 -15 -39 -6 -51 21 -6 12 -18
26 -27 32 -29 18 -42 -7 -44 -89 -1 -41 -5 -79 -9 -85 -3 -5 14 -31 39 -58 25
-27 50 -59 55 -73 9 -22 10 -20 11 16 1 56 16 125 28 137 8 8 15 8 25 -1 12
-9 16 -1 21 51 4 34 4 105 0 158 -7 108 5 165 37 175 32 11 39 -3 32 -65 -6
-63 2 -74 32 -44 15 15 17 15 30 -2 8 -11 17 -31 20 -46 4 -15 15 -45 25 -66
10 -21 22 -51 26 -66 11 -44 51 -32 98 31 44 60 77 72 141 51 77 -25 50 -78
-39 -78 -24 0 -41 -9 -69 -38 -20 -21 -37 -41 -37 -46 0 -4 -9 -21 -20 -36
-13 -18 -16 -31 -10 -35 16 -10 12 -43 -7 -54 -17 -9 -16 -11 4 -28 17 -15 22
-34 27 -98 3 -44 9 -93 14 -109 l8 -29 18 28 c18 27 18 31 2 74 -16 43 -16 46
0 58 9 7 20 10 24 8 4 -3 13 23 20 56 10 47 20 66 42 82 15 11 28 26 28 32 0
6 9 30 20 53 38 79 48 139 42 275 -4 101 -8 131 -22 147 -10 11 -23 20 -30 20
-8 0 -10 11 -5 38 4 25 1 47 -9 67 -9 17 -16 35 -16 41 0 6 -13 28 -30 49 -16
21 -30 43 -30 50 0 7 23 36 50 65 28 29 50 58 50 65 0 7 -10 24 -21 39 -35 44
-18 37 40 -15 l53 -50 -27 -25 c-18 -17 -35 -24 -49 -20 -30 8 -56 -21 -56
-63 1 -26 10 -47 35 -76 41 -48 56 -40 27 17 -19 38 -19 44 -6 69 14 29 33 46
35 32 1 -13 7 -45 13 -69 3 -12 20 -35 37 -52 31 -30 32 -32 15 -57 -15 -22
-16 -36 -6 -103 5 -42 11 -104 13 -137 2 -57 3 -60 27 -60 22 0 25 -5 28 -44
2 -24 -4 -77 -13 -117 -9 -41 -16 -77 -17 -81 0 -5 -13 -44 -30 -88 -33 -90
-38 -167 -19 -315 14 -111 14 -181 -3 -260 -7 -36 -11 -71 -9 -78 10 -24 28
-6 34 33 8 46 41 77 78 73 20 -2 27 -10 32 -36 11 -55 24 -55 20 0 -6 93 34
235 81 285 26 27 48 30 48 6 1 -26 28 -59 39 -47 5 5 12 32 16 60 5 41 3 53
-11 65 -12 9 -18 10 -21 3 -2 -6 -10 -20 -18 -30 -13 -18 -14 -16 -15 17 0 27
-6 41 -22 51 -21 14 -22 19 -11 49 6 19 17 72 23 119 19 129 29 159 61 191 16
16 33 29 38 29 5 0 14 14 21 31 11 26 15 28 22 14 7 -11 3 -51 -11 -118 -27
-130 -26 -141 5 -166 24 -19 25 -24 15 -49 -10 -24 -9 -36 5 -70 9 -23 20 -42
26 -42 5 0 7 -4 4 -9 -3 -4 3 -19 14 -32 12 -12 23 -34 26 -48 10 -45 12 -47
13 -12 1 25 -7 43 -26 63 -33 35 -18 36 28 3 l34 -26 0 -129 c0 -72 -3 -130
-6 -130 -3 0 -18 14 -34 30 -41 42 -62 39 -70 -10 -5 -30 -2 -50 16 -84 27
-55 23 -106 -15 -189 -37 -79 -33 -91 28 -95 27 -2 53 1 57 5 5 5 19 78 31
163 l22 155 3 1998 4 1997 -571 0 c-558 -1 -570 -1 -560 -20z m511 -412 c17
-51 29 -107 29 -137 l0 -50 30 5 c41 9 44 -6 27 -127 -13 -88 -22 -116 -67
-203 -55 -106 -73 -131 -104 -148 -18 -10 -18 -7 -14 35 3 27 19 65 40 98 58
91 65 103 71 134 5 27 -17 243 -43 417 -10 66 -13 145 -3 88 2 -14 17 -64 34
-112z m-68 -243 c32 -31 27 -46 -32 -97 -46 -38 -50 -50 -33 -99 11 -33 10
-42 -12 -92 -17 -39 -34 -60 -56 -72 -18 -9 -34 -14 -38 -11 -3 4 5 32 18 63
21 52 22 60 10 102 -18 66 -16 78 28 125 22 24 43 54 47 67 7 22 22 38 35 39
3 0 18 -11 33 -25z m-339 -1451 c9 -8 16 -24 16 -35 0 -10 4 -19 9 -19 4 0
-11 -20 -35 -44 -25 -24 -44 -53 -44 -65 0 -28 -18 -27 -22 2 -2 17 -9 22 -34
22 -32 0 -74 28 -74 49 0 17 64 75 102 91 43 19 63 18 82 -1z m-398 -114 c2
-66 2 -66 29 -40 23 22 25 22 25 4 0 -18 -24 -52 -82 -118 -16 -17 -28 -33
-29 -36 -6 -39 -3 -292 4 -313 6 -19 6 -32 -2 -40 -6 -6 -11 -18 -11 -27 0
-22 -36 -54 -50 -45 -6 4 -8 16 -4 28 4 13 -3 38 -22 73 l-28 52 28 58 c21 43
30 76 32 124 1 43 9 80 23 106 15 29 20 55 18 101 -2 48 2 65 17 82 25 28 51
23 52 -9z m414 -70 c0 -14 -6 -20 -22 -19 -19 1 -19 2 -5 6 11 3 16 11 13 19
-3 8 -1 14 4 14 6 0 10 -9 10 -20z m-899 -207 c-9 -15 -10 -13 -11 13 0 17 3
34 8 38 11 12 14 -32 3 -51z m596 7 c8 -12 9 -21 3 -25 -6 -3 -10 -23 -10 -43
0 -20 -9 -52 -20 -70 -12 -20 -20 -50 -20 -78 0 -38 -3 -45 -17 -42 -30 5 -28
64 2 121 24 43 27 57 21 103 -5 47 -4 54 12 54 9 0 23 -9 29 -20z m534 -76
c34 -148 27 -441 -13 -520 -24 -49 -39 -58 -63 -41 -17 13 -29 129 -29 297 0
93 28 311 45 342 10 18 11 18 29 -5 11 -13 24 -46 31 -73z m-603 0 l-3 -29
-13 23 c-8 13 -11 31 -7 39 9 26 27 0 23 -33z m250 -198 c8 -15 29 -34 47 -42
35 -14 35 -15 47 -139 5 -48 -25 -43 -82 14 -46 46 -50 54 -50 98 0 26 -4 54
-9 62 -5 8 -7 20 -4 28 9 22 36 11 51 -21z"/>
<path d="M6956 3604 c-7 -17 5 -18 28 -1 16 12 16 13 -3 14 -10 1 -22 -5 -25
-13z"/>
<path d="M6621 2157 c-13 -21 -12 -21 5 -5 10 10 16 20 13 22 -3 3 -11 -5 -18
-17z"/>
<path d="M6162 1785 c0 -16 2 -22 5 -12 2 9 2 23 0 30 -3 6 -5 -1 -5 -18z"/>
<path d="M6145 1646 c-5 -19 -2 -40 10 -65 23 -48 29 -28 11 40 -13 51 -14 52
-21 25z"/>
<path d="M5280 4263 c-7 -27 -18 -54 -24 -62 -9 -12 -8 -13 4 -6 57 32 70 47
70 81 0 27 -4 34 -19 34 -14 0 -22 -12 -31 -47z"/>
<path d="M5790 4300 c20 -13 40 -13 40 0 0 6 -12 10 -27 10 -22 0 -25 -2 -13
-10z"/>
<path d="M6377 4237 c-42 -36 -47 -63 -18 -98 l19 -24 7 30 c10 46 13 57 23
93 6 17 10 32 9 32 -1 -1 -19 -15 -40 -33z"/>
<path d="M2780 4222 c0 -12 -4 -22 -10 -22 -19 0 -10 -20 60 -127 39 -59 70
-105 70 -101 0 25 -79 212 -107 253 -13 19 -13 19 -13 -3z"/>
<path d="M5840 4194 c-19 -49 -11 -56 30 -25 20 16 22 21 11 35 -19 23 -30 20
-41 -10z"/>
<path d="M5010 4182 c-19 -14 -31 -21 -26 -14 4 6 3 12 -3 12 -14 0 -3 -61 14
-79 16 -17 35 -6 35 20 0 11 7 31 16 45 26 38 5 48 -36 16z"/>
<path d="M6032 4178 c-11 -18 -22 -47 -25 -65 -6 -32 8 -48 55 -66 17 -6 17
-7 44 136 5 25 3 27 -24 27 -24 0 -35 -7 -50 -32z"/>
<path d="M986 4174 c-9 -9 -16 -32 -16 -54 0 -21 -4 -42 -10 -45 -20 -12 48
-115 77 -115 7 0 13 6 13 14 0 8 6 16 14 19 7 3 18 25 24 48 10 40 9 46 -19
83 -16 22 -29 46 -29 53 0 18 -35 16 -54 -3z"/>
<path d="M558 4093 c-2 -32 -3 -60 -1 -62 6 -9 53 43 53 59 0 9 -11 27 -24 39
l-24 23 -4 -59z"/>
<path d="M3210 4146 c-1 -41 49 -159 100 -234 73 -109 82 -117 108 -101 19 12
18 15 -27 68 -56 66 -121 161 -156 228 -13 27 -25 44 -25 39z"/>
<path d="M1450 4040 l0 -74 21 21 c17 17 20 28 15 55 -3 19 -13 43 -21 54 -13
17 -14 12 -15 -56z"/>
<path d="M5180 4088 c0 -7 -3 -23 -6 -35 -5 -17 -2 -23 10 -23 12 0 16 9 16
35 0 19 -4 35 -10 35 -5 0 -10 -6 -10 -12z"/>
<path d="M5575 4060 c-3 -5 -1 -10 4 -10 6 0 11 5 11 10 0 6 -2 10 -4 10 -3 0
-8 -4 -11 -10z"/>
<path d="M2642 3960 c98 -65 264 -220 321 -297 l24 -32 27 28 c16 17 23 31 18
35 -14 8 -58 88 -65 118 -6 24 -85 87 -155 122 -31 16 -254 96 -267 96 -3 0
41 -31 97 -70z"/>
<path d="M5961 4016 c-7 -9 -21 -16 -30 -16 -9 -1 -33 -21 -55 -46 l-39 -45
27 -28 c14 -15 23 -31 19 -36 -5 -4 -3 -5 4 -2 6 4 21 -4 32 -19 16 -21 18
-30 10 -46 -9 -17 -8 -19 13 -16 21 3 24 10 35 101 7 54 9 114 5 134 -7 32 -9
34 -21 19z"/>
<path d="M5430 3954 c-87 -19 -147 -42 -154 -59 -7 -19 -8 -19 59 10 31 14 89
32 128 41 39 8 73 17 76 19 8 9 -42 3 -109 -11z"/>
<path d="M1884 3906 c-20 -16 -21 -13 25 -86 13 -21 13 -23 1 -14 -8 6 -27 14
-43 18 l-27 7 15 -37 c8 -20 15 -46 15 -57 0 -16 6 -13 30 18 36 45 39 33 8
-30 -22 -45 -22 -47 -5 -76 9 -17 17 -35 17 -40 0 -15 -47 -10 -60 6 -7 9 -31
30 -53 47 -29 23 -37 27 -30 12 5 -10 16 -45 23 -77 11 -47 11 -63 1 -79 -15
-25 -6 -92 16 -114 14 -14 19 -12 45 15 17 17 39 31 49 31 10 0 37 -22 60 -50
44 -52 64 -59 113 -40 l26 9 -34 93 c-18 51 -36 119 -40 152 -4 41 -12 63 -27
75 -15 12 -21 30 -23 67 -2 33 -10 62 -24 81 -12 17 -26 42 -32 57 -11 30 -18
32 -46 12z"/>
<path d="M1950 3882 c0 -5 8 -17 19 -26 16 -15 19 -15 24 -2 4 10 -1 20 -13
26 -23 12 -30 13 -30 2z"/>
<path d="M5809 3879 c-7 -5 -9 -9 -4 -9 6 -1 -1 -6 -15 -11 l-25 -10 28 -15
c18 -10 27 -23 27 -39 0 -14 6 -25 13 -25 9 0 12 9 9 29 -2 16 1 32 7 35 6 4
11 14 11 21 0 20 -33 36 -51 24z"/>
<path d="M1464 3839 c4 -24 11 -91 16 -149 6 -58 14 -121 20 -140 5 -19 10
-48 10 -64 l0 -30 -32 30 -32 29 27 -33 c15 -19 27 -40 27 -48 0 -15 37 -19
56 -6 18 11 34 49 34 77 0 32 37 49 75 35 23 -9 24 -8 15 16 -5 13 -12 35 -14
47 -7 33 -36 141 -40 144 -1 1 -17 -3 -34 -9 -35 -13 -62 -5 -71 23 -4 12 -2
12 13 0 25 -21 28 -9 7 34 -11 23 -20 33 -23 24 -3 -9 -11 -3 -21 18 -27 52
-41 53 -33 2z"/>
<path d="M1772 3863 c-1 -10 -5 -47 -8 -83 l-6 -65 26 48 c31 58 35 117 8 117
-10 0 -19 -8 -20 -17z"/>
<path d="M5171 3849 c-55 -31 -71 -53 -53 -71 8 -8 25 0 60 26 64 46 77 62 59
69 -8 3 -38 -8 -66 -24z"/>
<path d="M4082 3834 c-114 -30 -323 -150 -364 -207 l-23 -32 45 27 c77 44 222
115 287 138 59 21 64 22 87 6 14 -9 30 -25 36 -36 17 -32 30 -14 30 40 0 31
-6 54 -16 64 -18 19 -14 19 -82 0z"/>
<path d="M4278 3825 c-24 -13 -68 -86 -68 -112 0 -7 23 4 51 23 28 19 60 34
71 34 26 0 68 -46 104 -114 16 -30 30 -54 31 -52 9 9 -63 194 -84 219 -19 21
-68 22 -105 2z"/>
<path d="M5738 3763 c7 -3 16 -2 19 1 4 3 -2 6 -13 5 -11 0 -14 -3 -6 -6z"/>
<path d="M4720 3756 c0 -15 57 -127 82 -162 17 -24 39 -67 49 -96 l18 -53 1
46 c0 59 -15 104 -54 154 -35 46 -96 117 -96 111z"/>
<path d="M5785 3655 c-69 -16 -273 -82 -295 -97 -12 -7 -10 -8 5 -3 41 13 286
65 339 71 51 6 53 7 38 25 -9 11 -19 19 -22 18 -3 -1 -32 -7 -65 -14z"/>
<path d="M5966 3654 c-3 -9 -6 -17 -6 -18 0 -2 33 -6 73 -9 39 -4 97 -9 127
-13 80 -8 43 12 -67 36 -107 24 -119 24 -127 4z"/>
<path d="M2238 3625 c5 -11 19 -41 31 -67 l21 -48 33 18 c19 9 39 27 45 40 10
21 8 25 -23 38 -19 8 -47 14 -63 14 -15 0 -34 6 -41 13 -11 10 -12 8 -3 -8z"/>
<path d="M3629 3560 l-54 -52 48 33 c52 36 73 57 65 65 -3 3 -30 -18 -59 -46z"/>
<path d="M6338 3603 c6 -2 18 -2 25 0 6 3 1 5 -13 5 -14 0 -19 -2 -12 -5z"/>
<path d="M3152 3513 c-3 -72 -51 -175 -123 -265 -27 -34 -49 -66 -49 -71 0 -6
13 8 28 29 16 21 44 51 63 66 36 27 99 131 99 164 1 11 7 36 14 56 12 34 12
39 -9 58 l-22 20 -1 -57z"/>
<path d="M1691 3500 c0 -8 4 -22 9 -30 12 -18 12 -2 0 25 -6 13 -9 15 -9 5z"/>
<path d="M4524 3485 c5 -11 10 -58 13 -105 5 -81 4 -89 -26 -148 -20 -40 -65
-97 -121 -157 -50 -52 -90 -97 -90 -100 0 -8 115 92 176 152 88 86 110 172 76
292 -12 41 -24 76 -28 80 -4 3 -4 -3 0 -14z"/>
<path d="M6440 3469 c-13 -6 -32 -17 -41 -25 -9 -8 -31 -17 -49 -19 -17 -2
-47 -14 -66 -26 -33 -20 -35 -24 -29 -59 5 -29 -1 -56 -24 -115 -17 -42 -31
-82 -31 -88 0 -7 -11 -35 -24 -62 -13 -28 -26 -73 -30 -100 l-8 -48 26 16 c14
9 36 17 49 17 14 0 35 13 50 30 27 30 36 34 70 30 25 -2 63 25 70 49 7 26 6
26 -29 -4 -34 -29 -55 -34 -31 -7 18 19 22 44 10 56 -4 3 -18 -6 -31 -21 -22
-26 -23 -26 -10 -3 8 14 20 45 27 70 8 29 29 62 58 91 26 28 41 49 34 53 -6 4
-7 15 -1 29 18 46 23 63 25 94 2 17 6 36 10 42 7 13 8 13 -25 0z"/>
<path d="M5097 3398 c9 -46 13 -104 9 -158 l-5 -85 20 43 c11 23 23 65 26 92
5 41 1 59 -25 114 -17 36 -33 66 -35 66 -2 0 2 -33 10 -72z"/>
<path d="M1640 3426 c0 -9 5 -16 10 -16 6 0 10 4 10 9 0 6 -4 13 -10 16 -5 3
-10 -1 -10 -9z"/>
<path d="M3837 3396 c-4 -11 -19 -16 -44 -16 -72 0 -195 -103 -328 -275 -90
-116 -88 -118 16 -14 104 103 107 105 164 140 49 30 111 59 240 115 104 45
104 48 5 46 -19 0 -38 4 -41 10 -4 5 -9 3 -12 -6z"/>
<path d="M4199 3403 c-1 -5 -1 -11 -1 -14 1 -3 -18 -4 -41 -3 -48 4 -39 -2 54
-36 69 -25 95 -49 110 -101 16 -51 -1 -142 -32 -175 -12 -12 -16 -24 -11 -28
10 -6 38 36 81 121 24 48 27 121 8 167 -11 25 -19 29 -57 32 -62 5 -105 19
-102 33 1 6 0 11 -3 11 -3 0 -6 -3 -6 -7z"/>
<path d="M2257 3352 c-16 -18 -16 -19 9 -31 33 -15 55 0 38 26 -15 25 -28 26
-47 5z"/>
<path d="M2860 3233 c-30 -71 -33 -86 -32 -173 1 -52 6 -111 11 -130 7 -26 9
-2 8 95 -1 119 1 136 26 204 15 41 25 76 23 78 -1 2 -18 -32 -36 -74z"/>
<path d="M1805 3281 c34 -10 97 -37 140 -59 44 -22 105 -51 135 -62 63 -25
192 -37 266 -24 46 7 42 8 -58 15 -91 6 -119 13 -195 44 -131 56 -242 92 -298
99 l-50 5 60 -18z"/>
<path d="M2323 3273 c9 -2 23 -2 30 0 6 3 -1 5 -18 5 -16 0 -22 -2 -12 -5z"/>
<path d="M6645 3246 c-16 -38 -19 -94 -7 -113 7 -10 12 -10 27 1 16 11 20 27
20 77 0 73 -18 89 -40 35z"/>
<path d="M1270 3255 c0 -5 5 -17 10 -25 5 -8 10 -10 10 -5 0 6 -5 17 -10 25
-5 8 -10 11 -10 5z"/>
<path d="M4711 3232 c-7 -18 -45 -62 -85 -99 -75 -71 -73 -74 11 -10 51 40 98
107 91 129 -2 6 -10 -3 -17 -20z"/>
<path d="M4916 3235 c34 -172 25 -242 -44 -337 -30 -43 -73 -150 -72 -181 1
-25 33 49 35 80 2 32 49 113 66 113 14 0 57 84 63 125 8 49 -7 132 -34 188
-17 35 -19 37 -14 12z"/>
<path d="M3092 3135 c-23 -47 -49 -109 -58 -138 -9 -29 -27 -83 -41 -122 -13
-38 -20 -65 -15 -60 40 46 87 112 123 175 23 41 46 78 51 81 8 5 -7 137 -16
146 -2 2 -22 -35 -44 -82z"/>
<path d="M6030 3185 c-17 -21 2 -85 30 -103 23 -14 24 -7 14 72 -7 48 -22 58
-44 31z"/>
<path d="M6432 3170 c0 -14 2 -19 5 -12 2 6 2 18 0 25 -3 6 -5 1 -5 -13z"/>
<path d="M3600 3172 c0 -5 10 -13 23 -19 12 -6 48 -32 80 -58 32 -26 60 -45
63 -43 13 13 -48 76 -96 100 -60 29 -70 32 -70 20z"/>
<path d="M1530 3168 c0 -17 23 -68 31 -68 15 0 10 20 -11 47 -11 14 -20 24
-20 21z"/>
<path d="M5630 3160 c-8 -5 -10 -10 -5 -10 6 0 17 5 25 10 8 5 11 10 5 10 -5
0 -17 -5 -25 -10z"/>
<path d="M5965 3102 l-40 -37 21 -23 c12 -12 26 -22 33 -22 6 0 11 -6 11 -12
0 -7 5 -5 11 5 5 9 9 41 7 71 l-3 55 -40 -37z"/>
<path d="M5458 3085 c-45 -23 -164 -101 -143 -93 24 8 172 88 190 102 30 23 6
19 -47 -9z"/>
<path d="M5832 3017 c-17 -24 -34 -55 -37 -69 -6 -23 -3 -26 32 -31 21 -4 53
-7 72 -7 34 0 34 0 26 38 -4 20 -9 51 -10 67 -2 17 -4 33 -4 38 -1 4 -11 7
-24 7 -16 0 -33 -14 -55 -43z"/>
<path d="M4670 3035 c-6 -8 -22 -17 -33 -21 -12 -3 -38 -16 -57 -27 -19 -12
-39 -22 -45 -23 -12 -2 -185 -103 -185 -108 0 -2 80 36 178 85 177 89 220 102
263 79 15 -8 19 -7 19 3 0 11 -15 14 -64 13 -35 0 -62 2 -59 7 8 13 -4 8 -17
-8z"/>
<path d="M2323 2995 c173 -28 219 -41 351 -106 55 -27 101 -48 102 -46 2 2 -5
21 -16 43 -11 21 -25 55 -31 74 -7 22 -17 36 -27 36 -10 1 -46 6 -82 13 -36 6
-150 10 -255 10 l-190 -1 148 -23z"/>
<path d="M6410 2978 c-12 -20 -16 -34 -9 -37 12 -4 35 25 42 52 8 28 -12 19
-33 -15z"/>
<path d="M4803 2965 c0 -22 2 -30 4 -17 2 12 2 30 0 40 -3 9 -5 -1 -4 -23z"/>
<path d="M3365 2964 c-8 -13 -15 -27 -15 -31 0 -4 -9 -19 -20 -33 -27 -34 -25
-48 5 -42 14 2 22 8 20 13 -3 4 -13 6 -23 3 -15 -5 -15 -5 -1 5 9 6 20 23 24
38 9 36 23 53 44 53 9 0 64 -31 121 -69 106 -69 260 -157 260 -148 0 3 -42 28
-92 57 -51 29 -131 78 -178 110 -105 70 -124 76 -145 44z"/>
<path d="M5019 2944 c-13 -14 -48 -40 -76 -56 -47 -26 -70 -50 -97 -96 -5 -8
12 7 38 32 25 25 51 46 57 46 15 0 52 30 84 68 32 39 28 42 -6 6z"/>
<path d="M5329 2907 c-42 -29 -90 -60 -108 -69 -28 -15 -30 -20 -21 -38 8 -16
15 -18 28 -10 19 10 190 169 182 169 -3 0 -39 -24 -81 -52z"/>
<path d="M6702 2927 c-11 -13 -12 -251 -1 -262 6 -5 30 65 49 146 11 41 9 51
-9 88 -24 46 -24 46 -39 28z"/>
<path d="M4781 2893 c-10 -26 -10 -27 4 -9 8 11 15 23 15 28 0 15 -7 8 -19
-19z"/>
<path d="M4685 2852 c14 -14 72 -25 78 -15 3 4 -5 8 -16 8 -12 1 -33 5 -47 9
-17 6 -22 5 -15 -2z"/>
<path d="M2235 2824 c85 -46 179 -73 310 -90 129 -16 175 -14 175 10 0 10 -32
15 -142 18 -132 5 -152 8 -253 42 -60 21 -117 39 -125 42 -8 3 8 -7 35 -22z"/>
<path d="M6043 2833 c9 -2 23 -2 30 0 6 3 -1 5 -18 5 -16 0 -22 -2 -12 -5z"/>
<path d="M5615 2822 c-11 -2 -29 -12 -40 -21 -32 -27 -95 -67 -175 -110 -83
-45 -88 -52 -13 -20 146 63 311 107 503 134 63 9 119 17 124 18 14 4 -378 2
-399 -1z"/>
<path d="M3463 2790 c-31 -18 -53 -48 -53 -70 0 -6 12 1 27 15 42 39 82 41
150 11 31 -15 65 -34 75 -43 15 -13 18 -13 18 -2 0 25 -14 36 -87 73 -84 42
-88 42 -130 16z"/>
<path d="M4376 2775 c-75 -28 -107 -65 -104 -120 l1 -40 4 37 c4 32 9 38 51
56 59 25 108 40 150 46 29 4 36 0 53 -27 10 -18 19 -27 19 -20 0 20 -43 62
-80 77 -32 12 -40 12 -94 -9z"/>
<path d="M1686 2755 c-9 -26 -7 -32 5 -12 6 10 9 21 6 23 -2 3 -7 -2 -11 -11z"/>
<path d="M3192 2745 c0 -16 2 -22 5 -12 2 9 2 23 0 30 -3 6 -5 -1 -5 -18z"/>
<path d="M3962 2738 c-2 -35 -4 -38 -32 -38 -16 0 -30 -4 -30 -9 0 -17 19 -22
39 -11 16 8 20 6 24 -13 4 -21 4 -21 6 2 0 14 9 34 19 45 15 18 15 19 0 8 -15
-12 -17 -10 -21 20 l-4 33 -1 -37z"/>
<path d="M3535 2720 c-3 -5 -2 -10 3 -10 5 0 15 -11 22 -25 15 -29 25 -32 34
-9 13 35 -40 75 -59 44z"/>
<path d="M4380 2700 c-16 -16 -18 -25 -10 -40 14 -27 24 -25 41 8 7 15 15 30
17 33 9 18 -31 16 -48 -1z"/>
<path d="M6199 2702 c-14 -9 -37 -27 -52 -38 l-26 -21 7 -99 c5 -55 6 -125 4
-156 -2 -36 0 -58 6 -58 6 0 27 16 47 35 31 29 36 39 31 62 -16 72 -18 209 -3
251 8 23 14 42 13 41 0 0 -13 -8 -27 -17z"/>
<path d="M3401 2684 c0 -11 3 -14 6 -6 3 7 2 16 -1 19 -3 4 -6 -2 -5 -13z"/>
<path d="M3830 2684 c-17 -9 -20 -14 -9 -14 9 0 22 7 29 15 15 18 13 18 -20
-1z"/>
<path d="M4077 2677 c3 -5 18 -7 34 -5 22 4 29 0 32 -16 4 -17 5 -16 6 4 1 24
-2 26 -38 25 -21 0 -37 -4 -34 -8z"/>
<path d="M5065 2660 c-16 -16 -26 -32 -24 -34 3 -3 17 10 32 29 34 43 30 45
-8 5z"/>
<path d="M5132 2665 c0 -16 2 -22 5 -12 2 9 2 23 0 30 -3 6 -5 -1 -5 -18z"/>
<path d="M2865 2646 c-12 -18 -14 -35 -9 -63 l7 -38 16 45 15 45 10 -44 c6
-29 6 -57 -1 -85 l-11 -41 38 44 39 45 -22 30 c-11 17 -31 43 -43 59 l-23 28
-16 -25z"/>
<path d="M3890 2640 c8 -5 20 -10 25 -10 6 0 3 5 -5 10 -8 5 -19 10 -25 10 -5
0 -3 -5 5 -10z"/>
<path d="M4050 2646 c0 -2 8 -10 18 -17 15 -13 16 -12 3 4 -13 16 -21 21 -21
13z"/>
<path d="M1671 2611 c-20 -13 -29 -92 -30 -248 -1 -101 -4 -135 -16 -146 -17
-18 -10 -27 22 -27 38 0 30 -45 -16 -91 -21 -22 -45 -39 -52 -39 -10 1 -8 4 4
11 26 15 21 32 -5 18 -42 -22 -49 -53 -23 -103 8 -15 15 -39 15 -52 0 -22 -4
-23 -42 -21 -34 2 -46 8 -56 28 l-14 24 7 -25 c19 -72 19 -70 -14 -70 -20 0
-31 5 -31 14 0 21 -21 31 -31 15 -5 -8 -6 -46 -3 -86 7 -76 -1 -143 -16 -143
-6 0 -10 7 -10 16 0 9 -6 14 -12 12 -25 -9 -22 -90 12 -287 17 -99 22 -101 61
-26 18 36 44 76 57 88 l24 22 19 -24 c11 -13 24 -31 28 -39 15 -26 39 -5 50
45 5 26 19 74 29 106 l19 57 -27 -17 c-67 -44 -77 -57 -72 -91 3 -24 1 -32
-11 -32 -19 0 -62 43 -83 82 -13 26 -13 28 9 43 13 8 46 22 74 30 55 16 71 31
102 92 11 22 32 50 46 62 24 18 27 28 32 113 3 52 0 111 -6 133 -5 22 -17 62
-24 90 -9 33 -11 60 -6 80 13 45 61 106 110 141 51 36 57 52 34 100 -9 20 -14
42 -11 50 3 8 1 14 -4 14 -6 0 -10 16 -10 35 0 28 -4 35 -20 35 -11 0 -20 5
-20 11 0 28 -18 -6 -29 -55 -20 -89 -35 -78 -43 31 -2 25 -6 30 -17 24z"/>
<path d="M2094 2572 c2 -9 7 -60 11 -112 3 -52 11 -114 17 -138 8 -31 8 -50 0
-68 -10 -22 -10 -23 6 -13 14 9 19 25 20 63 0 28 4 99 7 157 l7 105 -37 11
c-32 10 -35 9 -31 -5z"/>
<path d="M4994 2576 c-3 -8 -4 -29 -2 -48 3 -29 4 -27 8 15 5 48 3 58 -6 33z"/>
<path d="M3405 2516 c-50 -12 -50 -12 50 -13 58 0 119 -6 145 -15 42 -13 50
-13 107 7 35 12 60 25 56 29 -11 11 -306 5 -358 -8z"/>
<path d="M4934 2493 c-15 -21 -36 -46 -46 -56 -10 -10 -18 -23 -18 -30 0 -8 4
-7 10 3 7 12 11 10 18 -11 6 -14 17 -30 25 -37 13 -11 16 -4 22 49 4 34 11 75
15 91 5 15 7 28 5 28 -1 0 -15 -17 -31 -37z"/>
<path d="M4200 2513 c-25 -2 -56 -6 -69 -9 -23 -5 -23 -5 -5 -26 31 -34 55
-37 109 -16 89 36 108 39 215 40 81 1 96 3 65 9 -39 8 -224 9 -315 2z"/>
<path d="M1382 2473 c-1 -21 2 -32 8 -28 12 7 14 52 3 58 -5 3 -9 -11 -11 -30z"/>
<path d="M2967 2487 c-11 -14 -17 -39 -17 -72 l0 -50 19 31 c27 44 41 51 59
28 13 -18 14 -17 8 8 -3 15 -16 38 -29 52 l-23 24 -17 -21z"/>
<path d="M5500 2498 c-36 -5 -115 -7 -177 -4 -111 4 -111 4 -116 -20 -4 -23
-3 -24 64 -24 88 0 199 16 280 40 69 20 52 23 -51 8z"/>
<path d="M3318 2493 c7 -3 16 -2 19 1 4 3 -2 6 -13 5 -11 0 -14 -3 -6 -6z"/>
<path d="M3278 2483 c7 -3 16 -2 19 1 4 3 -2 6 -13 5 -11 0 -14 -3 -6 -6z"/>
<path d="M3238 2473 c7 -3 16 -2 19 1 4 3 -2 6 -13 5 -11 0 -14 -3 -6 -6z"/>
<path d="M3041 2384 c0 -11 3 -14 6 -6 3 7 2 16 -1 19 -3 4 -6 -2 -5 -13z"/>
<path d="M3881 2343 c-18 -19 -37 -47 -42 -62 -9 -23 -7 -29 28 -58 23 -20 49
-33 66 -33 29 0 127 45 139 64 18 26 8 73 -21 100 -28 27 -31 27 -65 15 -28
-10 -41 -11 -55 -2 -15 9 -23 5 -50 -24z m97 -32 c12 -33 8 -41 -23 -41 -32 0
-36 9 -19 41 18 37 29 37 42 0z"/>
<path d="M2579 2341 c-59 -16 -233 -100 -224 -109 2 -2 17 4 34 13 51 26 151
54 237 66 43 6 80 12 82 13 1 2 0 11 -4 20 -8 20 -39 19 -125 -3z"/>
<path d="M1281 2343 c0 -5 4 -17 9 -28 8 -18 9 -17 9 8 1 15 -3 27 -9 27 -5 0
-10 -3 -9 -7z"/>
<path d="M1835 2310 c-20 -22 -20 -22 5 -42 24 -20 25 -20 28 -1 2 10 -1 29
-6 42 l-8 22 -19 -21z"/>
<path d="M5568 2297 c-32 -10 -55 -23 -53 -28 3 -4 3 -20 -1 -34 -7 -28 -48
-45 -67 -26 -15 15 -68 13 -91 -4 -17 -13 -17 -14 10 -21 16 -3 55 -18 87 -32
56 -24 58 -25 73 -6 22 27 44 80 44 104 0 12 7 20 18 20 9 0 22 11 29 25 6 14
10 24 10 24 -1 -1 -28 -11 -59 -22z"/>
<path d="M5922 2255 c0 -16 2 -22 5 -12 2 9 2 23 0 30 -3 6 -5 -1 -5 -18z"/>
<path d="M2967 2240 c-20 -29 -14 -40 23 -40 27 0 30 -4 36 -40 5 -32 12 -42
31 -46 36 -9 46 7 37 62 l-7 49 -12 -35 -12 -34 -11 32 c-8 22 -17 32 -32 32
-12 0 -24 9 -29 22 l-8 21 -16 -23z"/>
<path d="M1761 2233 c-13 -25 -21 -97 -10 -86 17 17 48 86 43 94 -8 14 -23 10
-33 -8z"/>
<path d="M5885 2240 c3 -5 8 -10 11 -10 2 0 4 5 4 10 0 6 -5 10 -11 10 -5 0
-7 -4 -4 -10z"/>
<path d="M5245 2220 l-30 -8 37 -1 c20 0 40 4 43 9 7 11 -6 11 -50 0z"/>
<path d="M5089 2203 c-1 -5 -1 -12 0 -16 1 -5 -3 -6 -8 -3 -5 4 -13 2 -16 -4
-5 -8 15 -10 62 -8 37 1 88 0 113 -3 25 -4 35 -4 23 -2 -13 2 -23 9 -23 14 0
5 -3 8 -7 8 -27 -4 -63 3 -58 11 4 6 -12 10 -39 10 -25 0 -47 -3 -47 -7z"/>
<path d="M5965 2190 c3 -5 10 -10 16 -10 5 0 9 5 9 10 0 6 -7 10 -16 10 -8 0
-12 -4 -9 -10z"/>
<path d="M2640 2148 c0 -32 2 -33 44 -36 73 -4 102 48 34 62 -66 13 -78 9 -78
-26z"/>
<path d="M5564 2148 c-16 -12 -31 -23 -33 -25 -3 -2 0 -8 7 -15 8 -8 15 -6 27
6 9 9 20 16 25 16 4 0 10 9 13 20 7 26 -3 25 -39 -2z"/>
<path d="M1809 2119 c-31 -34 -37 -54 -16 -62 26 -10 36 -81 33 -242 -2 -140
-6 -166 -25 -210 -22 -48 -51 -238 -51 -330 0 -35 3 -40 24 -41 19 -1 29 8 50
46 l26 47 -25 23 c-34 32 -32 47 16 110 51 69 75 82 99 53 l17 -21 16 27 c11
19 14 40 10 65 -5 34 -2 41 34 79 59 62 93 135 93 202 0 39 39 195 53 213 5 7
7 15 4 18 -3 3 -13 -8 -22 -25 -18 -36 -30 -38 -65 -11 -14 11 -28 20 -32 20
-10 0 -42 -60 -67 -127 -24 -66 -46 -92 -61 -77 -12 12 -35 102 -51 198 -7 42
-17 76 -22 76 -5 0 -22 -14 -38 -31z"/>
<path d="M5007 2112 c-10 -10 -17 -22 -17 -25 0 -9 87 -7 120 2 23 6 20 9 -27
24 -63 21 -56 21 -76 -1z"/>
<path d="M3930 2083 c-52 -2 -99 -8 -104 -13 -5 -5 -1 -7 10 -5 41 9 264 12
264 4 0 -5 5 -9 11 -9 8 0 8 5 -1 15 -8 9 -27 14 -49 13 -20 -1 -79 -4 -131
-5z"/>
<path d="M2751 2052 c-15 -29 -14 -53 5 -74 16 -16 15 -18 0 -24 -12 -4 -28 4
-49 23 -35 33 -84 63 -72 44 14 -24 -45 -131 -73 -131 -18 0 -70 -31 -95 -55
-32 -33 -35 -51 -25 -163 12 -136 36 -171 57 -85 7 25 23 60 37 76 32 38 31
47 -11 87 -22 22 -35 42 -33 55 3 20 94 89 107 80 14 -8 31 -110 27 -157 -5
-50 2 -59 25 -32 8 10 27 15 58 14 25 -1 51 -1 56 -1 10 1 12 348 2 358 -3 2
-10 -4 -16 -15z"/>
<path d="M5654 2033 c5 -9 -1 -13 -18 -13 -24 0 -25 -2 -14 -26 11 -22 10 -28
-7 -40 -10 -8 -27 -14 -37 -14 -11 0 -37 -10 -59 -22 l-40 -23 -20 24 c-10 13
-19 30 -19 38 0 8 -7 27 -15 43 -16 32 -39 37 -104 24 -27 -6 -31 -11 -31 -39
0 -32 -19 -56 -52 -68 -18 -6 -43 16 -35 30 13 21 -38 9 -59 -14 l-23 -25 49
-95 c28 -52 50 -104 50 -116 0 -23 49 -127 60 -127 4 0 13 26 20 58 7 31 21
73 31 93 19 39 17 49 -13 49 -24 0 -34 26 -18 45 7 9 8 15 2 15 -13 0 -22 37
-15 57 5 13 9 11 23 -7 l17 -22 27 28 27 29 20 -24 c10 -13 19 -37 19 -53 0
-16 9 -41 20 -55 26 -33 25 -49 -5 -98 -14 -22 -25 -47 -25 -56 0 -36 33 -160
42 -157 5 2 21 37 34 78 32 96 63 150 85 150 25 0 40 24 33 56 -4 23 5 51 39
118 38 75 44 93 36 119 -5 17 -14 35 -20 41 -9 8 -10 8 -5 -1z"/>
<path d="M5483 2000 c13 -33 24 -37 52 -16 16 12 17 16 6 30 -7 9 -26 16 -41
16 -27 0 -28 -1 -17 -30z"/>
<path d="M3095 1958 c-4 -9 -2 -36 3 -60 l9 -43 7 42 c8 46 -7 94 -19 61z"/>
<path d="M4813 1951 c10 -4 18 -10 18 -14 0 -4 2 -14 6 -23 6 -15 7 -15 20 2
23 31 16 44 -24 43 -26 0 -32 -3 -20 -8z"/>
<path d="M4899 1947 c-26 -21 -69 -91 -69 -114 0 -12 15 -41 33 -65 19 -24 38
-52 44 -62 9 -15 15 -6 42 60 51 126 75 178 86 186 5 4 -19 8 -55 8 -36 -1
-72 -6 -81 -13z"/>
<path d="M3862 1891 c-10 -6 -7 -15 13 -39 15 -18 32 -32 38 -32 25 0 138 60
132 70 -7 12 -164 13 -183 1z"/>
<path d="M4726 1863 c9 -38 14 -42 14 -10 0 14 -5 29 -10 32 -7 4 -8 -3 -4
-22z"/>
<path d="M3092 1830 c0 -14 2 -19 5 -12 2 6 2 18 0 25 -3 6 -5 1 -5 -13z"/>
<path d="M4555 1793 c-72 -66 -330 -281 -398 -332 -121 -89 -224 -107 -329
-58 -62 29 -234 141 -368 240 -52 39 -102 75 -110 81 -14 11 16 -33 290 -431
69 -100 154 -225 190 -278 36 -53 71 -104 78 -113 23 -30 -8 28 -41 77 -16 24
-54 107 -84 184 -29 78 -70 170 -89 205 -20 35 -30 60 -23 56 8 -5 59 -39 114
-76 55 -36 121 -76 147 -89 43 -21 53 -22 100 -12 29 6 55 9 57 7 2 -2 -1 -21
-7 -42 -11 -36 -10 -36 61 38 40 41 93 91 117 111 26 22 69 75 103 130 31 51
57 90 57 87 0 -3 -24 -79 -53 -169 -55 -168 -73 -228 -63 -219 10 11 104 207
119 250 33 96 109 268 146 332 22 38 39 68 38 68 -1 -1 -24 -22 -52 -47z"/>
<path d="M5328 1823 c6 -2 18 -2 25 0 6 3 1 5 -13 5 -14 0 -19 -2 -12 -5z"/>
<path d="M2249 1807 c-8 -7 -28 -42 -43 -79 l-29 -67 -29 15 c-17 9 -31 14
-32 12 -1 -2 -11 -15 -22 -29 -18 -24 -19 -41 -17 -239 1 -117 5 -215 7 -218
7 -7 72 99 85 140 8 24 11 84 10 165 -3 131 1 153 27 153 9 0 21 6 28 13 8 6
25 22 40 34 14 13 26 31 26 41 0 10 5 23 12 30 8 8 8 15 -2 27 -15 18 -39 19
-61 2z"/>
<path d="M4748 1735 c-5 -71 5 -91 21 -42 10 28 9 42 -2 68 l-14 34 -5 -60z"/>
<path d="M3081 1744 c0 -11 3 -14 6 -6 3 7 2 16 -1 19 -3 4 -6 -2 -5 -13z"/>
<path d="M4552 1705 c-17 -37 -14 -45 4 -12 9 16 14 31 11 33 -2 2 -9 -7 -15
-21z"/>
<path d="M33 1663 l-33 -17 0 -118 c0 -70 4 -117 9 -114 5 4 17 -16 26 -44 15
-46 30 -68 40 -58 10 9 12 237 3 283 -5 28 -10 58 -11 68 -1 9 -1 17 -2 16 0
0 -15 -8 -32 -16z"/>
<path d="M4522 1625 c-17 -37 -14 -45 4 -12 9 16 14 31 11 33 -2 2 -9 -7 -15
-21z"/>
<path d="M5131 1593 c-18 -34 -19 -143 -1 -143 12 0 42 103 38 132 -4 28 -24
34 -37 11z"/>
<path d="M5521 1504 c-45 -81 -55 -110 -68 -187 -16 -103 -34 -177 -39 -162
-2 6 -8 30 -14 54 -8 29 -14 40 -20 32 -14 -23 7 -80 44 -121 41 -46 53 -83
39 -121 -12 -31 -8 -39 18 -39 18 0 49 46 49 73 0 7 -11 36 -25 63 -14 27 -25
54 -25 61 0 25 22 24 57 -4 77 -61 75 -60 57 -17 -22 52 -14 141 17 191 13 20
22 49 21 65 -1 15 6 44 17 63 19 36 19 36 0 58 -11 12 -32 37 -47 55 l-27 32
-54 -96z"/>
<path d="M2566 1582 c-2 -4 2 -25 9 -46 8 -22 14 -68 14 -104 0 -63 5 -82 17
-69 4 3 9 50 11 105 5 97 5 98 -21 110 -14 6 -27 8 -30 4z"/>
<path d="M4486 1535 c-9 -26 -7 -32 5 -12 6 10 9 21 6 23 -2 3 -7 -2 -11 -11z"/>
<path d="M3031 1504 c0 -11 3 -14 6 -6 3 7 2 16 -1 19 -3 4 -6 -2 -5 -13z"/>
<path d="M5786 1459 c-26 -20 -28 -26 -23 -70 3 -26 15 -66 27 -89 12 -23 19
-48 16 -57 -7 -17 40 -113 54 -113 18 0 21 25 9 56 -20 52 -30 97 -42 197
l-12 99 -29 -23z"/>
<path d="M4426 1383 c-6 -14 -5 -15 5 -6 7 7 10 15 7 18 -3 3 -9 -2 -12 -12z"/>
<path d="M1093 1343 c-8 -2 -13 -22 -13 -45 0 -40 0 -40 32 -34 47 9 56 22 38
54 -16 27 -34 35 -57 25z"/>
<path d="M4396 1305 c-9 -26 -7 -32 5 -12 6 10 9 21 6 23 -2 3 -7 -2 -11 -11z"/>
<path d="M7 1295 c-4 -9 -7 -118 -7 -241 0 -217 1 -224 20 -224 26 0 26 -26 0
-65 -26 -40 -30 -178 -4 -168 9 3 14 13 11 24 -3 12 0 16 9 12 19 -7 18 11 -1
27 -20 17 -19 53 3 73 25 23 41 21 51 -5 5 -15 10 13 15 85 4 59 11 119 16
133 16 40 12 170 -6 212 -8 20 -28 51 -43 67 -16 17 -35 43 -43 59 -12 24 -16
26 -21 11z"/>
<path d="M2946 1216 c-39 -48 -158 -132 -213 -151 -31 -11 -14 -13 138 -19 96
-3 192 -8 214 -10 22 -3 14 0 -18 7 -35 7 -62 19 -68 29 -5 10 -10 56 -11 103
-1 47 -2 85 -3 85 -2 0 -19 -20 -39 -44z"/>
<path d="M3496 1198 c-9 -69 -36 -109 -103 -161 l-55 -41 73 -13 74 -12 33 32
c55 52 56 59 27 145 -36 108 -41 113 -49 50z"/>
<path d="M1147 1208 c-37 -30 -37 -30 -37 -104 0 -67 2 -74 20 -74 46 0 67 21
82 79 12 53 12 59 -7 93 l-20 36 -38 -30z"/>
<path d="M4366 1225 c-9 -26 -7 -32 5 -12 6 10 9 21 6 23 -2 3 -7 -2 -11 -11z"/>
<path d="M913 1207 c-17 -6 -36 -21 -42 -34 -6 -13 -15 -23 -20 -23 -6 0 -20
-21 -32 -47 -26 -57 -31 -153 -9 -197 16 -32 40 -46 40 -24 0 7 8 18 19 25 10
6 21 26 25 43 3 17 14 43 25 56 13 17 21 48 26 102 4 42 9 85 11 95 6 19 3 19
-43 4z"/>
<path d="M6276 1171 c-4 -7 -5 -15 -2 -18 9 -9 19 4 14 18 -4 11 -6 11 -12 0z"/>
<path d="M4408 1057 c-33 -123 -34 -157 -10 -187 l19 -23 67 18 c47 13 63 21
53 27 -35 19 -81 138 -99 251 -2 11 -15 -28 -30 -86z"/>
<path d="M2096 1105 c4 -8 7 -15 9 -15 2 0 5 7 9 15 3 9 0 15 -9 15 -9 0 -12
-6 -9 -15z"/>
<path d="M6308 1113 c7 -3 16 -2 19 1 4 3 -2 6 -13 5 -11 0 -14 -3 -6 -6z"/>
<path d="M5393 1071 c6 -49 13 -59 29 -43 8 8 8 19 -2 42 -20 49 -34 49 -27 1z"/>
<path d="M4726 1040 c7 -71 24 -114 49 -124 9 -3 46 -6 81 -6 l65 0 -67 51
c-65 49 -94 79 -122 123 -11 18 -12 11 -6 -44z"/>
<path d="M6058 1053 c-9 -3 -16 -12 -16 -21 1 -9 -2 -28 -7 -42 l-7 -25 26 24
c25 24 36 49 16 36 -5 -3 -10 -2 -10 4 0 5 6 11 13 14 17 6 5 14 -15 10z"/>
<path d="M2618 1043 c12 -2 30 -2 40 0 9 3 -1 5 -23 4 -22 0 -30 -2 -17 -4z"/>
<path d="M2543 1033 c9 -2 23 -2 30 0 6 3 -1 5 -18 5 -16 0 -22 -2 -12 -5z"/>
<path d="M3248 1013 c7 -3 16 -2 19 1 4 3 -2 6 -13 5 -11 0 -14 -3 -6 -6z"/>
<path d="M1337 1004 c-3 -3 -3 -13 0 -21 5 -12 7 -12 14 -1 15 23 4 40 -14 22z"/>
<path d="M3298 1003 c6 -2 18 -2 25 0 6 3 1 5 -13 5 -14 0 -19 -2 -12 -5z"/>
<path d="M1388 963 c7 -3 16 -2 19 1 4 3 -2 6 -13 5 -11 0 -14 -3 -6 -6z"/>
<path d="M3508 963 c7 -3 16 -2 19 1 4 3 -2 6 -13 5 -11 0 -14 -3 -6 -6z"/>
<path d="M5583 949 c-38 -24 -41 -35 -12 -44 23 -8 30 -2 47 38 14 32 8 33
-35 6z"/>
<path d="M1084 925 c-3 -16 -11 -36 -17 -43 -19 -24 66 16 86 39 24 30 22 34
-23 34 -36 0 -40 -3 -46 -30z"/>
<path d="M1328 953 c7 -3 16 -2 19 1 4 3 -2 6 -13 5 -11 0 -14 -3 -6 -6z"/>
<path d="M3548 953 c7 -3 16 -2 19 1 4 3 -2 6 -13 5 -11 0 -14 -3 -6 -6z"/>
<path d="M3030 936 c0 -7 6 -19 13 -25 15 -12 22 -13 192 -37 66 -9 196 -31
290 -50 93 -18 171 -32 173 -30 3 4 -148 41 -333 83 -169 38 -74 39 185 2 249
-36 339 -66 470 -157 l65 -45 -55 58 c-33 34 -76 67 -107 81 -107 48 -340 96
-583 119 -202 19 -310 20 -310 1z"/>
<path d="M4219 883 c-19 -31 -46 -66 -62 -77 -24 -17 -32 -19 -60 -9 -25 9
-28 9 -13 0 11 -7 36 -26 56 -44 l37 -32 22 57 c13 31 31 79 42 106 11 27 18
51 16 53 -2 2 -19 -22 -38 -54z"/>
<path d="M2682 905 c-122 -22 -210 -43 -117 -29 22 3 94 11 160 18 68 6 119
15 118 21 -3 16 -19 15 -161 -10z"/>
<path d="M3688 923 c7 -3 16 -2 19 1 4 3 -2 6 -13 5 -11 0 -14 -3 -6 -6z"/>
<path d="M6019 878 c4 -61 11 -69 74 -86 95 -24 109 -15 68 47 -30 45 -93 90
-126 91 -18 0 -20 -5 -16 -52z"/>
<path d="M907 884 c-3 -10 -8 -32 -12 -49 -3 -16 -16 -40 -27 -52 -28 -30 -17
-29 33 3 37 23 40 28 34 57 -11 49 -21 65 -28 41z"/>
<path d="M3911 870 c-9 -5 -3 -9 16 -13 34 -6 37 -5 14 10 -10 6 -23 8 -30 3z"/>
<path d="M2498 863 c7 -3 16 -2 19 1 4 3 -2 6 -13 5 -11 0 -14 -3 -6 -6z"/>
<path d="M730 841 c-5 -11 -10 -29 -10 -41 0 -16 -4 -20 -15 -16 -18 6 -38
-35 -29 -58 7 -19 41 -7 90 30 37 29 42 48 18 82 -19 27 -40 28 -54 3z"/>
<path d="M3980 840 c8 -5 20 -10 25 -10 6 0 3 5 -5 10 -8 5 -19 10 -25 10 -5
0 -3 -5 5 -10z"/>
<path d="M5510 840 c0 -14 49 -32 62 -24 7 5 4 12 -7 21 -22 15 -55 17 -55 3z"/>
<path d="M5270 819 c19 -6 108 -33 197 -61 97 -30 170 -48 180 -43 16 6 15 8
-9 21 -36 19 -195 61 -300 79 -93 17 -121 18 -68 4z"/>
<path d="M799 723 c-13 -16 -12 -17 4 -4 9 7 17 15 17 17 0 8 -8 3 -21 -13z"/>
<path d="M3160 709 c0 -5 5 -7 10 -4 6 3 10 8 10 11 0 2 -4 4 -10 4 -5 0 -10
-5 -10 -11z"/>
<path d="M5683 706 c0 -9 41 -31 106 -58 138 -56 250 -132 385 -259 107 -102
114 -99 30 11 -99 132 -229 218 -444 296 -79 28 -77 28 -77 10z"/>
<path d="M749 683 c-13 -16 -12 -17 4 -4 9 7 17 15 17 17 0 8 -8 3 -21 -13z"/>
<path d="M3005 689 c-4 -6 -2 -15 5 -19 7 -4 10 -17 7 -29 -6 -24 18 -55 51
-65 18 -6 22 -4 22 16 0 13 -11 41 -23 63 -23 41 -49 55 -62 34z"/>
<path d="M70 684 c0 -5 11 -22 25 -39 20 -25 23 -27 18 -8 -5 22 -43 63 -43
47z"/>
<path d="M689 633 l-24 -28 28 24 c15 14 27 26 27 28 0 8 -8 1 -31 -24z"/>
<path d="M4235 636 c10 -14 19 -26 22 -26 7 0 -17 39 -28 46 -6 3 -3 -5 6 -20z"/>
<path d="M1749 583 c-13 -16 -12 -17 4 -4 16 13 21 21 13 21 -2 0 -10 -8 -17
-17z"/>
<path d="M1395 541 c6 -11 4 -13 -9 -8 -14 6 -16 0 -11 -46 3 -28 7 -61 9 -72
3 -11 5 -24 5 -28 1 -5 7 -5 14 -1 8 5 8 2 -2 -9 -15 -19 -9 -22 18 -7 15 8
18 21 17 73 -2 52 -6 68 -25 88 -13 13 -20 18 -16 10z"/>
<path d="M84 515 c-12 -19 -14 -31 -7 -47 8 -18 10 -15 20 26 5 25 9 46 7 46
-2 0 -11 -11 -20 -25z"/>
<path d="M0 260 l0 -261 22 3 c20 3 21 8 19 83 -1 44 3 127 8 184 9 103 9 105
-16 138 -20 26 -24 41 -20 68 3 19 1 37 -4 40 -5 4 -9 -96 -9 -255z"/>
<path d="M554 498 l-19 -23 23 19 c21 18 27 26 19 26 -2 0 -12 -10 -23 -22z"/>
<path d="M2071 455 c-47 -15 -213 -97 -207 -102 1 -2 22 4 47 12 56 18 270 57
329 60 25 1 59 2 75 4 30 2 30 2 -10 17 -59 22 -181 26 -234 9z"/>
<path d="M1066 409 c-99 -50 -389 -180 -477 -213 -26 -10 -57 -16 -70 -14 -21
3 -24 8 -22 45 1 23 11 63 22 89 12 26 20 49 18 51 -8 7 -106 -215 -112 -254
-5 -35 -4 -44 10 -49 22 -9 203 82 370 185 l130 81 -95 -91 -95 -90 200 142
c188 133 236 169 225 169 -3 0 -50 -23 -104 -51z"/>
<path d="M3733 435 c-28 -32 -40 -67 -21 -63 17 4 68 70 62 80 -8 13 -18 9
-41 -17z"/>
<path d="M1113 360 c-88 -102 -153 -194 -153 -217 0 -24 96 -12 205 25 217 73
415 149 430 164 7 7 4 7 -10 1 -45 -23 -356 -113 -428 -124 -101 -17 -110 -9
-72 63 15 29 47 81 72 116 24 34 42 62 39 62 -2 0 -40 -41 -83 -90z"/>
<path d="M4545 413 c-11 -2 -48 -13 -83 -25 -66 -21 -104 -21 -184 2 -40 12
-54 12 -85 1 -43 -16 -179 -97 -189 -113 -4 -6 -3 -8 3 -5 24 15 204 49 273
52 41 2 113 7 160 12 47 4 145 8 218 7 76 -1 128 2 120 7 -16 11 -154 56 -188
62 -14 2 -34 2 -45 0z"/>
<path d="M3685 349 c-11 -17 1 -21 15 -4 8 9 8 15 2 15 -6 0 -14 -5 -17 -11z"/>
<path d="M3857 293 c-12 -12 -7 -21 10 -19 21 3 30 26 11 26 -8 0 -18 -3 -21
-7z"/>
<path d="M3632 268 c-6 -6 -12 -19 -12 -27 0 -13 2 -13 16 1 9 9 15 21 13 27
-3 9 -8 8 -17 -1z"/>
<path d="M3822 239 c-12 -11 -19 -25 -16 -31 4 -7 11 -2 18 11 7 12 15 18 19
15 4 -4 7 0 7 9 0 22 -2 21 -28 -4z"/>
<path d="M6258 243 c6 -2 18 -2 25 0 6 3 1 5 -13 5 -14 0 -19 -2 -12 -5z"/>
<path d="M230 213 c0 -5 6 -18 14 -29 8 -11 16 -36 18 -55 3 -33 3 -33 16 -12
10 19 10 28 -5 60 -17 34 -43 56 -43 36z"/>
<path d="M6400 166 c0 -3 12 -41 26 -85 l26 -81 69 0 c65 0 69 1 60 19 -19 35
-99 109 -140 130 -22 12 -41 19 -41 17z"/>
<path d="M155 138 c-32 -88 -34 -97 -20 -91 22 8 56 69 49 87 -7 19 -23 21
-29 4z"/>
<path d="M2253 130 c-34 -14 -28 -21 7 -9 17 6 30 13 30 15 0 6 -12 4 -37 -6z"/>
<path d="M3905 125 c-27 -7 -104 -22 -170 -34 -66 -12 -169 -30 -230 -41 -60
-10 -153 -25 -205 -32 l-95 -13 138 -3 c167 -3 301 19 482 80 158 53 194 73
80 43z"/>
<path d="M226 113 c-6 -14 -5 -15 5 -6 7 7 10 15 7 18 -3 3 -9 -2 -12 -12z"/>
<path d="M6606 73 c15 -27 32 -54 37 -60 11 -15 77 -18 77 -3 0 10 -120 110
-133 110 -4 0 4 -21 19 -47z"/>
</g>
</svg>
